<svg width="40" height="40" viewBox="0 0 40 40" fill="none" xmlns="http://www.w3.org/2000/svg">
<g clip-path="url(#clip0_203_139)">
<path d="M0 20C0 8.95417 8.95417 0 20 0C31.0458 0 40 8.95417 40 20C40 31.0458 31.0458 40 20 40C8.95417 40 0 31.0458 0 20Z" fill="white"/>
<path d="M28.7249 27.6917H11.2499C10.9193 27.6906 10.6025 27.5587 10.3687 27.3248C10.135 27.0909 10.0033 26.774 10.0024 26.4433V13.8192C10.0024 13.1417 10.5549 12.5717 11.2508 12.5717H28.7249C29.4024 12.5717 29.9733 13.1242 29.9733 13.8192V26.4442C29.9733 27.1392 29.4199 27.6917 28.7249 27.6917Z" fill="#E3E3E3"/>
<path opacity="0.1" d="M12.4994 27.6917L19.9702 21.6833L20.0236 21.3617L12.3211 15.8167L12.3027 27.425L12.4994 27.6917V27.6917Z" fill="#231F20"/>
<path d="M11.25 27.6917C11.0858 27.6926 10.9231 27.6609 10.7713 27.5985C10.6195 27.536 10.4816 27.4441 10.3656 27.328C10.2496 27.2119 10.1577 27.0739 10.0954 26.9221C10.0331 26.7702 10.0015 26.6075 10.0025 26.4434V13.8017C10.0025 13.1059 10.555 12.9817 11.2508 12.9817C11.9458 12.9817 12.4991 13.1234 12.4991 13.8017V27.6917H11.25Z" fill="#D54B3D"/>
<path d="M11.2499 13.16C12.1416 13.16 12.3208 13.4267 12.3208 13.8017V27.5134H11.2499C10.9664 27.5125 10.6948 27.3995 10.4943 27.199C10.2938 26.9985 10.1808 26.7269 10.1799 26.4434V13.8017C10.1799 13.41 10.3583 13.16 11.2499 13.16V13.16ZM11.2499 12.9817C10.5549 12.9817 10.0024 13.1234 10.0024 13.8017V26.4434C10.0024 27.1392 10.5549 27.6917 11.2508 27.6917H12.4991V13.8017C12.4991 13.1059 11.9458 12.9817 11.2508 12.9817H11.2499Z" fill="#D72B27"/>
<path d="M28.7249 27.6917H27.4766V13.7667C27.4766 13.0709 28.0291 12.9817 28.7249 12.9817C29.4199 12.9817 29.9724 13.0709 29.9724 13.7659V26.4617C29.9724 27.1392 29.4199 27.6917 28.7249 27.6917Z" fill="#D54B3D"/>
<path d="M28.7249 13.16C29.5266 13.16 29.7949 13.32 29.7949 13.7659V26.4617C29.7949 27.05 29.3132 27.5309 28.7249 27.5309H27.6549V13.7667C27.6549 13.3034 27.9216 13.1609 28.7249 13.1609V13.16ZM28.7249 12.9817C28.0291 12.9817 27.4766 13.0709 27.4766 13.7659V27.7092H28.7249C29.4199 27.7092 29.9724 27.1567 29.9724 26.4617V13.7659C29.9724 13.0709 29.4199 12.9817 28.7249 12.9817V12.9817Z" fill="#D72B27"/>
<path d="M23.3751 27.6917L10.1084 14.32L10.8059 14.6033L20.0417 21.255L29.9742 13.9717V26.4617C29.9742 27.1392 29.4209 27.6917 28.7259 27.6917H23.3759H23.3751Z" fill="url(#paint0_linear_203_139)"/>
<path d="M19.9702 21.6833L10.5377 14.8358C9.98518 14.4258 9.82435 13.6408 10.2343 13.0883C10.4384 12.8205 10.7389 12.6427 11.0719 12.593C11.4049 12.5432 11.7442 12.6252 12.0177 12.8216L19.9877 18.6158L28.0118 12.7491C28.1448 12.6516 28.2958 12.5815 28.4562 12.5431C28.6165 12.5046 28.7829 12.4985 28.9456 12.5251C29.1083 12.5517 29.2641 12.6105 29.4038 12.6981C29.5436 12.7856 29.6644 12.9002 29.7593 13.035C29.8569 13.1679 29.927 13.319 29.9654 13.4793C30.0039 13.6396 30.01 13.806 29.9834 13.9687C29.9568 14.1315 29.898 14.2872 29.8104 14.427C29.7229 14.5667 29.6083 14.6875 29.4735 14.7825L19.9702 21.6825V21.6833Z" fill="#D54B3D"/>
<path d="M28.7251 12.6783C29.0634 12.6783 29.3843 12.8383 29.5984 13.1242C29.9376 13.6058 29.8301 14.2658 29.3668 14.6217L19.9701 21.4683L10.6451 14.6933C10.1634 14.3367 10.0384 13.6592 10.3776 13.195C10.4819 13.0572 10.6167 12.9453 10.7713 12.8681C10.926 12.7909 11.0964 12.7505 11.2693 12.75C11.5001 12.75 11.7326 12.8208 11.9109 12.9633L19.8634 18.7408L19.9701 18.8117L20.0768 18.7408L28.0826 12.8742C28.2793 12.7492 28.4926 12.6783 28.7243 12.6783H28.7251ZM28.7251 12.5C28.4751 12.5 28.2084 12.5717 27.9934 12.7317L19.9701 18.5983L12.0001 12.8033C11.7817 12.6472 11.5186 12.5659 11.2501 12.5717C10.8584 12.5717 10.4668 12.75 10.2168 13.0883C9.82511 13.6408 9.98511 14.4258 10.5376 14.8358L19.9701 21.7008L29.4559 14.7825C29.7216 14.5856 29.9 14.2929 29.9532 13.9666C30.0064 13.6403 29.9303 13.3061 29.7409 13.035C29.6284 12.8695 29.4769 12.7341 29.2997 12.6408C29.1226 12.5476 28.9253 12.4992 28.7251 12.5V12.5Z" fill="#D72B27"/>
</g>
<defs>
<linearGradient id="paint0_linear_203_139" x1="10.1076" y1="20.8317" x2="29.9792" y2="20.8317" gradientUnits="userSpaceOnUse">
<stop stop-opacity="0.1"/>
<stop offset="1" stop-opacity="0.2"/>
</linearGradient>
<clipPath id="clip0_203_139">
<rect width="40" height="40" fill="white"/>
</clipPath>
</defs>
</svg>
