<svg width="40" height="40" viewBox="0 0 40 40" fill="none" xmlns="http://www.w3.org/2000/svg">
<g clip-path="url(#clip0_201_130)">
<path d="M26.25 11.25H13.75C13.087 11.25 12.4511 11.5134 11.9822 11.9822C11.5134 12.4511 11.25 13.087 11.25 13.75V26.25C11.25 26.913 11.5134 27.5489 11.9822 28.0178C12.4511 28.4866 13.087 28.75 13.75 28.75H26.25C26.913 28.75 27.5489 28.4866 28.0178 28.0178C28.4866 27.5489 28.75 26.913 28.75 26.25V13.75C28.75 13.087 28.4866 12.4511 28.0178 11.9822C27.5489 11.5134 26.913 11.25 26.25 11.25ZM20 25C19.0111 25 18.0444 24.7068 17.2221 24.1573C16.3999 23.6079 15.759 22.827 15.3806 21.9134C15.0022 20.9998 14.9031 19.9945 15.0961 19.0245C15.289 18.0546 15.7652 17.1637 16.4645 16.4645C17.1637 15.7652 18.0546 15.289 19.0245 15.0961C19.9945 14.9031 20.9998 15.0022 21.9134 15.3806C22.827 15.759 23.6079 16.3999 24.1573 17.2221C24.7068 18.0444 25 19.0111 25 20C25 21.3261 24.4732 22.5979 23.5355 23.5355C22.5979 24.4732 21.3261 25 20 25ZM25.625 15.9375C25.316 15.9375 25.0139 15.8459 24.7569 15.6742C24.5 15.5025 24.2997 15.2585 24.1814 14.9729C24.0632 14.6874 24.0322 14.3733 24.0925 14.0702C24.1528 13.7671 24.3016 13.4887 24.5201 13.2701C24.7387 13.0516 25.0171 12.9028 25.3202 12.8425C25.6233 12.7822 25.9374 12.8132 26.2229 12.9314C26.5085 13.0497 26.7525 13.25 26.9242 13.5069C27.0959 13.7639 27.1875 14.066 27.1875 14.375C27.1875 14.7894 27.0229 15.1868 26.7299 15.4799C26.4368 15.7729 26.0394 15.9375 25.625 15.9375V15.9375Z" fill="#F23F18"/>
<path d="M20 22.5C21.3807 22.5 22.5 21.3807 22.5 20C22.5 18.6193 21.3807 17.5 20 17.5C18.6193 17.5 17.5 18.6193 17.5 20C17.5 21.3807 18.6193 22.5 20 22.5Z" fill="#F23F18"/>
<path d="M20 0C16.0444 0 12.1776 1.17298 8.8886 3.37061C5.59962 5.56824 3.03617 8.69181 1.52242 12.3463C0.00866562 16.0009 -0.387401 20.0222 0.384303 23.9018C1.15601 27.7814 3.06082 31.3451 5.85787 34.1421C8.65492 36.9392 12.2186 38.844 16.0982 39.6157C19.9778 40.3874 23.9992 39.9913 27.6537 38.4776C31.3082 36.9638 34.4318 34.4004 36.6294 31.1114C38.827 27.8224 40 23.9556 40 20C40 14.6957 37.8929 9.60859 34.1421 5.85786C30.3914 2.10714 25.3043 0 20 0V0ZM31.25 26.25C31.25 27.5761 30.7232 28.8479 29.7855 29.7855C28.8479 30.7232 27.5761 31.25 26.25 31.25H13.75C12.4239 31.25 11.1522 30.7232 10.2145 29.7855C9.27679 28.8479 8.75001 27.5761 8.75001 26.25V13.75C8.75001 12.4239 9.27679 11.1521 10.2145 10.2145C11.1522 9.27678 12.4239 8.75 13.75 8.75H26.25C27.5761 8.75 28.8479 9.27678 29.7855 10.2145C30.7232 11.1521 31.25 12.4239 31.25 13.75V26.25Z" fill="#F23F18"/>
</g>
<defs>
<clipPath id="clip0_201_130">
<rect width="40" height="40" fill="white"/>
</clipPath>
</defs>
</svg>
