<svg width="64" height="64" viewBox="0 0 64 64" fill="none" xmlns="http://www.w3.org/2000/svg">
<path d="M59.637 41.81C59.4798 41.8096 59.3248 41.7722 59.1847 41.7009C59.0446 41.6295 58.9232 41.5262 58.8304 41.3992C58.7376 41.2723 58.676 41.1253 58.6506 40.9701C58.6252 40.8149 58.6366 40.6559 58.684 40.506C58.878 39.897 59.054 39.272 59.205 38.648C59.2343 38.5186 59.2891 38.3964 59.3661 38.2883C59.4431 38.1803 59.5409 38.0887 59.6537 38.0189C59.7665 37.949 59.892 37.9023 60.023 37.8814C60.154 37.8605 60.2879 37.866 60.4168 37.8973C60.5457 37.9287 60.6671 37.9854 60.7738 38.0642C60.8806 38.1429 60.9706 38.2421 61.0387 38.356C61.1068 38.4699 61.1515 38.5962 61.1702 38.7275C61.189 38.8589 61.1814 38.9926 61.148 39.121C60.986 39.79 60.798 40.461 60.589 41.113C60.5247 41.3151 60.3979 41.4916 60.2267 41.6169C60.0556 41.7422 59.8491 41.8098 59.637 41.81ZM60.853 35.945C60.7132 35.9451 60.5748 35.916 60.447 35.8593C60.3191 35.8027 60.2046 35.7199 60.1107 35.6162C60.0168 35.5125 59.9458 35.3903 59.9021 35.2575C59.8584 35.1247 59.843 34.9841 59.857 34.845C59.921 34.209 59.964 33.561 59.985 32.917C59.9866 32.7848 60.0148 32.6543 60.0681 32.5334C60.1215 32.4124 60.1987 32.3035 60.2952 32.2131C60.3917 32.1228 60.5055 32.0529 60.6297 32.0077C60.7539 31.9625 60.886 31.9428 61.018 31.95C61.2829 31.9589 61.5335 32.0726 61.7146 32.2661C61.8957 32.4596 61.9926 32.7171 61.984 32.982C61.9614 33.671 61.9157 34.3591 61.847 35.045C61.8222 35.2915 61.7068 35.52 61.5232 35.6863C61.3396 35.8526 61.1007 35.9448 60.853 35.945ZM60.842 29.955C60.5947 29.9548 60.3563 29.8631 60.1727 29.6974C59.9892 29.5317 59.8735 29.304 59.848 29.058C59.7817 28.4184 59.693 27.7814 59.582 27.148C59.5587 27.0184 59.5613 26.8855 59.5895 26.7568C59.6177 26.6282 59.6711 26.5064 59.7465 26.3985C59.8219 26.2905 59.9179 26.1985 60.029 26.1278C60.1401 26.0571 60.264 26.0089 60.3937 25.9862C60.5235 25.9635 60.6564 25.9666 60.7849 25.9954C60.9134 26.0242 61.0349 26.0781 61.1426 26.154C61.2502 26.2299 61.3417 26.3263 61.412 26.4377C61.4823 26.549 61.5298 26.6732 61.552 26.803C61.672 27.483 61.767 28.172 61.838 28.853C61.8648 29.1166 61.786 29.38 61.6187 29.5855C61.4515 29.791 61.2095 29.9217 60.946 29.949C60.9115 29.9533 60.8768 29.9556 60.842 29.956V29.955ZM59.608 24.097C59.3963 24.0968 59.1901 24.0296 59.0191 23.9049C58.848 23.7802 58.7209 23.6045 58.656 23.403C58.4595 22.7918 58.2413 22.1877 58.002 21.592C57.9519 21.4699 57.9264 21.3391 57.9271 21.2071C57.9278 21.0752 57.9546 20.9446 58.006 20.8231C58.0574 20.7015 58.1323 20.5913 58.2264 20.4988C58.3206 20.4064 58.4321 20.3335 58.5546 20.2843C58.6771 20.2351 58.8081 20.2107 58.94 20.2124C59.072 20.2141 59.2023 20.2419 59.3235 20.2942C59.4446 20.3465 59.5543 20.4223 59.646 20.5172C59.7377 20.6121 59.8098 20.7241 59.858 20.847C60.115 21.487 60.351 22.141 60.56 22.791C60.608 22.941 60.6199 23.1002 60.5948 23.2556C60.5697 23.4111 60.5083 23.5584 60.4155 23.6856C60.3227 23.8129 60.2013 23.9165 60.061 23.9879C59.9207 24.0594 59.7655 24.0968 59.608 24.097ZM57.193 18.624C57.0167 18.6242 56.8434 18.5778 56.6908 18.4895C56.5382 18.4011 56.4116 18.274 56.324 18.121C56.004 17.563 55.663 17.011 55.309 16.481C55.1618 16.2603 55.1083 15.9902 55.1602 15.7301C55.2122 15.47 55.3653 15.2412 55.586 15.094C55.8067 14.9468 56.0768 14.8933 56.3369 14.9452C56.597 14.9972 56.8258 15.1503 56.973 15.371C57.352 15.938 57.717 16.531 58.06 17.127C58.1471 17.279 58.1927 17.4512 58.1922 17.6264C58.1918 17.8016 58.1454 17.9736 58.0576 18.1252C57.9698 18.2768 57.8437 18.4026 57.692 18.4902C57.5402 18.5777 57.3682 18.6239 57.193 18.624ZM53.7 13.761C53.5582 13.7613 53.418 13.7314 53.2887 13.6733C53.1594 13.6152 53.0439 13.5302 52.95 13.424C52.527 12.947 52.08 12.476 51.622 12.025C51.4452 11.8368 51.348 11.5875 51.3509 11.3293C51.3537 11.0711 51.4563 10.824 51.6372 10.6397C51.8181 10.4555 52.0633 10.3483 52.3214 10.3407C52.5795 10.3331 52.8306 10.4257 53.022 10.599C53.514 11.082 53.994 11.586 54.448 12.099C54.5754 12.2432 54.6584 12.4211 54.6872 12.6113C54.716 12.8015 54.6894 12.996 54.6104 13.1714C54.5314 13.3468 54.4036 13.4958 54.2421 13.6004C54.0806 13.7049 53.8924 13.7607 53.7 13.761ZM49.286 9.713C49.071 9.71343 48.8615 9.64433 48.689 9.516C48.178 9.135 47.643 8.766 47.101 8.417C46.8826 8.27166 46.7301 8.04633 46.6763 7.78957C46.6225 7.53282 46.6717 7.26521 46.8134 7.04443C46.9551 6.82365 47.1778 6.66738 47.4337 6.60931C47.6895 6.55124 47.9579 6.59602 48.181 6.734C48.763 7.107 49.335 7.503 49.884 7.911C50.0527 8.03662 50.1774 8.21223 50.2406 8.41284C50.3037 8.61346 50.302 8.82887 50.2356 9.02844C50.1693 9.22801 50.0417 9.40159 49.871 9.52449C49.7004 9.64739 49.4953 9.71335 49.285 9.713H49.286ZM44.136 6.653C43.9913 6.65333 43.8483 6.62192 43.717 6.561C43.1324 6.29157 42.5388 6.04242 41.937 5.814C41.6945 5.71619 41.4999 5.52726 41.395 5.28772C41.2901 5.04818 41.2832 4.77707 41.3758 4.53251C41.4684 4.28794 41.6531 4.08938 41.8904 3.97937C42.1276 3.86936 42.3985 3.85667 42.645 3.944C43.289 4.188 43.932 4.458 44.555 4.746C44.7621 4.84154 44.9303 5.00499 45.0317 5.20924C45.1331 5.41349 45.1617 5.64627 45.1126 5.86898C45.0636 6.09169 44.9399 6.29096 44.7621 6.43374C44.5843 6.57652 44.363 6.65424 44.135 6.654L44.136 6.653ZM38.463 4.723C38.3883 4.72304 38.3138 4.71465 38.241 4.698C37.6137 4.55534 36.9817 4.4346 36.346 4.336C36.2145 4.31787 36.0879 4.27373 35.9736 4.20616C35.8593 4.13859 35.7596 4.04894 35.6804 3.94243C35.6011 3.83593 35.5438 3.71471 35.5119 3.58584C35.48 3.45697 35.474 3.32304 35.4944 3.19185C35.5148 3.06066 35.5611 2.93484 35.6306 2.82173C35.7001 2.70862 35.7915 2.61049 35.8993 2.53306C36.0072 2.45563 36.1294 2.40045 36.2588 2.37073C36.3882 2.34102 36.5222 2.33737 36.653 2.36C37.331 2.466 38.015 2.596 38.683 2.749C38.9225 2.80359 39.1336 2.94444 39.2759 3.14468C39.4182 3.34492 39.4819 3.59055 39.4547 3.83471C39.4275 4.07887 39.3113 4.30447 39.1284 4.46849C38.9455 4.63251 38.7087 4.72346 38.463 4.724V4.723ZM30.518 4.037C30.2562 4.03818 30.0045 3.93669 29.8167 3.75431C29.629 3.57192 29.5202 3.32319 29.5138 3.06152C29.5074 2.79984 29.6038 2.54608 29.7824 2.35472C29.961 2.16335 30.2075 2.04964 30.469 2.038C31.153 2.004 31.8427 1.993 32.538 2.005C32.6693 2.0075 32.7989 2.03583 32.9192 2.08839C33.0396 2.14095 33.1484 2.21671 33.2395 2.31133C33.3306 2.40595 33.4022 2.51759 33.4501 2.63987C33.4981 2.76215 33.5215 2.89268 33.519 3.024C33.5165 3.15532 33.4882 3.28487 33.4356 3.40524C33.383 3.52561 33.3073 3.63445 33.2127 3.72554C33.118 3.81664 33.0064 3.8882 32.8841 3.93615C32.7618 3.9841 32.6313 4.0075 32.5 4.005L31.98 4C31.5067 4 31.0367 4.01167 30.57 4.035C30.5527 4.03612 30.5353 4.03679 30.518 4.037ZM32.665 61.993C32.3998 61.9958 32.1443 61.8931 31.9548 61.7075C31.7653 61.522 31.6573 61.2687 31.6545 61.0035C31.6517 60.7383 31.7544 60.4828 31.94 60.2933C32.1255 60.1038 32.3788 59.9958 32.644 59.993C33.287 59.979 33.935 59.943 34.571 59.884C34.8352 59.86 35.098 59.9419 35.3018 60.1117C35.5055 60.2815 35.6335 60.5253 35.6575 60.7895C35.6815 61.0537 35.5996 61.3165 35.4298 61.5203C35.26 61.724 35.0162 61.852 34.752 61.876C34.071 61.938 33.376 61.977 32.687 61.993H32.665ZM28.675 61.81C28.6366 61.8098 28.5982 61.8075 28.56 61.803C27.8751 61.7247 27.193 61.623 26.515 61.498C26.2542 61.4497 26.0232 61.2998 25.8729 61.0812C25.7226 60.8627 25.6652 60.5933 25.7135 60.3325C25.7618 60.0717 25.9117 59.8407 26.1303 59.6904C26.3488 59.5401 26.6182 59.4827 26.879 59.531C27.508 59.647 28.15 59.743 28.787 59.816C29.0414 59.844 29.2754 59.9685 29.4408 60.1638C29.6062 60.3592 29.6904 60.6105 29.6761 60.8661C29.6617 61.1216 29.5499 61.362 29.3637 61.5376C29.1774 61.7132 28.931 61.8107 28.675 61.81ZM38.606 61.244C38.3606 61.2439 38.1238 61.1535 37.9407 60.9901C37.7576 60.8266 37.6409 60.6016 37.613 60.3577C37.5851 60.1139 37.6478 59.8683 37.7893 59.6677C37.9307 59.4672 38.141 59.3256 38.38 59.27C39 59.125 39.628 58.956 40.243 58.767C40.3695 58.7247 40.5031 58.7082 40.6361 58.7183C40.7691 58.7284 40.8987 58.7651 41.0173 58.826C41.1359 58.887 41.2411 58.9711 41.3267 59.0733C41.4123 59.1755 41.4767 59.2939 41.5159 59.4213C41.5551 59.5488 41.5684 59.6828 41.5551 59.8155C41.5417 59.9482 41.502 60.0768 41.4382 60.1939C41.3743 60.311 41.2878 60.4142 41.1835 60.4973C41.0792 60.5804 40.9594 60.6419 40.831 60.678C40.1718 60.881 39.5057 61.0611 38.834 61.218C38.7592 61.2352 38.6827 61.2439 38.606 61.244ZM22.827 60.52C22.7195 60.5198 22.6128 60.5023 22.511 60.468C21.8562 60.2499 21.2091 60.0091 20.571 59.746C20.4455 59.699 20.3306 59.6272 20.2334 59.5349C20.1362 59.4426 20.0585 59.3317 20.005 59.2087C19.9515 59.0858 19.9232 58.9534 19.9219 58.8193C19.9206 58.6853 19.9463 58.5523 19.9974 58.4284C20.0485 58.3044 20.124 58.192 20.2194 58.0978C20.3148 58.0037 20.4282 57.9296 20.5528 57.8802C20.6774 57.8307 20.8107 57.8068 20.9447 57.8098C21.0787 57.8129 21.2108 57.8429 21.333 57.898C21.926 58.142 22.535 58.368 23.143 58.571C23.3685 58.6459 23.5599 58.7987 23.683 59.0019C23.8061 59.2051 23.8529 59.4455 23.8148 59.68C23.7768 59.9146 23.6565 60.1279 23.4755 60.2818C23.2945 60.4357 23.0646 60.5202 22.827 60.52ZM17.369 58.045C17.1919 58.0453 17.0179 57.9984 16.865 57.909C16.2694 57.5603 15.686 57.1911 15.116 56.802C14.8969 56.6524 14.7463 56.4219 14.6971 56.1613C14.648 55.9006 14.7044 55.6311 14.854 55.412C15.0036 55.1929 15.2341 55.0423 15.4947 54.9931C15.7554 54.944 16.0249 55.0004 16.244 55.15C16.772 55.51 17.321 55.858 17.874 56.182C18.0635 56.2929 18.2112 56.4632 18.2944 56.6664C18.3775 56.8697 18.3914 57.0947 18.334 57.3066C18.2765 57.5186 18.1509 57.7057 17.9765 57.8392C17.8021 57.9726 17.5886 58.045 17.369 58.045ZM12.539 54.502C12.2912 54.5019 12.0524 54.4096 11.869 54.243C11.3579 53.7799 10.8626 53.2996 10.384 52.803C10.289 52.7093 10.2137 52.5975 10.1625 52.4742C10.1114 52.3509 10.0854 52.2186 10.0862 52.0851C10.087 51.9516 10.1145 51.8197 10.1671 51.697C10.2197 51.5743 10.2963 51.4634 10.3925 51.3708C10.4886 51.2782 10.6023 51.2058 10.7269 51.1578C10.8514 51.1099 10.9844 51.0873 11.1178 51.0915C11.2512 51.0957 11.3824 51.1266 11.5037 51.1823C11.625 51.2381 11.7339 51.3175 11.824 51.416C12.27 51.878 12.737 52.331 13.21 52.76C13.36 52.8955 13.4654 53.0733 13.5123 53.2699C13.5592 53.4666 13.5454 53.6728 13.4728 53.8614C13.4001 54.0501 13.272 54.2123 13.1053 54.3266C12.9386 54.441 12.7411 54.5021 12.539 54.502ZM8.539 50.048C8.38102 50.0483 8.22524 50.0111 8.08444 49.9394C7.94363 49.8678 7.82182 49.7638 7.729 49.636C7.32389 49.0788 6.93768 48.5082 6.571 47.925C6.50107 47.8138 6.45372 47.69 6.43165 47.5605C6.40959 47.4311 6.41324 47.2985 6.4424 47.1705C6.47155 47.0424 6.52565 46.9214 6.60159 46.8142C6.67753 46.7071 6.77383 46.6159 6.885 46.546C6.99616 46.4761 7.12001 46.4287 7.24947 46.4067C7.37893 46.3846 7.51148 46.3882 7.63953 46.4174C7.76758 46.4466 7.88864 46.5006 7.99578 46.5766C8.10293 46.6525 8.19407 46.7488 8.264 46.86C8.607 47.405 8.971 47.943 9.346 48.46C9.45436 48.6091 9.51942 48.7852 9.534 48.9689C9.54858 49.1526 9.51212 49.3368 9.42863 49.501C9.34514 49.6653 9.21787 49.8034 9.06088 49.8999C8.90389 49.9964 8.72328 50.0477 8.539 50.048ZM5.533 44.872C5.34029 44.872 5.1517 44.8163 4.98991 44.7116C4.82811 44.6069 4.7 44.4578 4.621 44.282C4.33838 43.6532 4.07756 43.0148 3.839 42.368C3.74736 42.1191 3.75836 41.844 3.86957 41.6032C3.98078 41.3624 4.18309 41.1756 4.432 41.084C4.6809 40.9924 4.95601 41.0034 5.19681 41.1146C5.43761 41.2258 5.62436 41.4281 5.716 41.677C5.938 42.278 6.183 42.879 6.445 43.461C6.5134 43.6133 6.5426 43.7804 6.52993 43.9469C6.51727 44.1134 6.46315 44.2741 6.3725 44.4144C6.28184 44.5546 6.15754 44.67 6.01092 44.7499C5.86429 44.8298 5.69999 44.8718 5.533 44.872ZM3.66 39.186C3.43196 39.1858 3.21086 39.1076 3.03334 38.9645C2.85583 38.8213 2.73257 38.6218 2.684 38.399C2.53682 37.7249 2.41341 37.0458 2.314 36.363C2.29515 36.233 2.3021 36.1005 2.33444 35.9732C2.36678 35.8459 2.42389 35.7262 2.50249 35.6209C2.66124 35.4084 2.89793 35.2676 3.1605 35.2295C3.42306 35.1914 3.68999 35.2592 3.90256 35.418C4.11513 35.5767 4.25594 35.8134 4.294 36.076C4.386 36.709 4.502 37.347 4.638 37.973C4.66984 38.1191 4.66853 38.2704 4.63416 38.4159C4.5998 38.5614 4.53326 38.6973 4.43943 38.8137C4.3456 38.93 4.22688 39.0239 4.09199 39.0883C3.9571 39.1528 3.80948 39.1861 3.66 39.186Z" fill="#F2F2F2"/>
<path d="M44.71 44.29L42.86 42.45C43.6109 41.2699 44.0066 39.8987 44 38.5C44 34.92 41.53 32 38.5 32C35.47 32 33 34.92 33 38.5C33 42.08 35.47 45 38.5 45C39.5976 44.9887 40.6601 44.6122 41.52 43.93L43.29 45.71C43.4796 45.8959 43.7345 46.0001 44 46.0001C44.2655 46.0001 44.5205 45.8959 44.71 45.71C44.8974 45.5212 45.0025 45.266 45.0025 45C45.0025 44.734 44.8974 44.4788 44.71 44.29ZM41.41 41L40.71 40.29C40.5217 40.1017 40.2663 39.9959 40 39.9959C39.7337 39.9959 39.4783 40.1017 39.29 40.29C39.1017 40.4783 38.9959 40.7337 38.9959 41C38.9959 41.2663 39.1017 41.5217 39.29 41.71L40.08 42.49C39.6162 42.8143 39.0659 42.9919 38.5 43C36.57 43 35 40.98 35 38.5C35 36.02 36.57 34 38.5 34C40.43 34 42 36.02 42 38.5C42.0039 39.3683 41.8017 40.2251 41.41 41ZM44.71 44.29L42.86 42.45C43.6109 41.2699 44.0066 39.8987 44 38.5C44 34.92 41.53 32 38.5 32C35.47 32 33 34.92 33 38.5C33 42.08 35.47 45 38.5 45C39.5976 44.9887 40.6601 44.6122 41.52 43.93L43.29 45.71C43.4796 45.8959 43.7345 46.0001 44 46.0001C44.2655 46.0001 44.5205 45.8959 44.71 45.71C44.8974 45.5212 45.0025 45.266 45.0025 45C45.0025 44.734 44.8974 44.4788 44.71 44.29ZM41.41 41L40.71 40.29C40.5217 40.1017 40.2663 39.9959 40 39.9959C39.7337 39.9959 39.4783 40.1017 39.29 40.29C39.1017 40.4783 38.9959 40.7337 38.9959 41C38.9959 41.2663 39.1017 41.5217 39.29 41.71L40.08 42.49C39.6162 42.8143 39.0659 42.9919 38.5 43C36.57 43 35 40.98 35 38.5C35 36.02 36.57 34 38.5 34C40.43 34 42 36.02 42 38.5C42.0039 39.3683 41.8017 40.2251 41.41 41ZM62.63 55.23C60.8181 53.7163 59.3709 51.8135 58.3962 49.6632C57.4214 47.5128 56.9442 45.1703 57 42.81V39.59C57 29.76 48.83 21.4 39.15 21.32C38.2532 21.3175 37.3575 21.381 36.47 21.51C36.8111 20.3059 36.9893 19.0615 37 17.81C37.0193 15.7845 36.6329 13.7757 35.8634 11.9019C35.094 10.0281 33.9572 8.32741 32.52 6.9C31.0672 5.44041 29.3362 4.28737 27.4295 3.50923C25.5228 2.73109 23.4792 2.34369 21.42 2.37C17.3347 2.49606 13.457 4.19958 10.6006 7.12309C7.74418 10.0466 6.13117 13.9628 6.10002 18.05V20.79C6.14776 22.7739 5.74723 24.743 4.92826 26.5506C4.1093 28.3582 2.89301 29.9577 1.37002 31.23C1.20955 31.36 1.0935 31.5367 1.03795 31.7355C0.982407 31.9344 0.990119 32.1457 1.06002 32.34C1.13063 32.5328 1.25854 32.6994 1.42657 32.8173C1.5946 32.9353 1.79471 32.9991 2.00002 33H21.18C21.5 33 21.81 32.98 22.13 32.96C21.367 34.9894 20.9839 37.1419 21 39.31C21.08 48.9 29.52 57 39.44 57H62C62.2053 56.9991 62.4054 56.9353 62.5735 56.8173C62.7415 56.6994 62.8694 56.5328 62.94 56.34C63.0099 56.1457 63.0176 55.9344 62.9621 55.7355C62.9065 55.5367 62.7905 55.36 62.63 55.23ZM20.35 20L19.84 21.35C19.7948 21.4728 19.7258 21.5856 19.6369 21.6817C19.5481 21.7778 19.4412 21.8555 19.3223 21.9103C19.2034 21.9651 19.0749 21.996 18.9441 22.001C18.8133 22.0061 18.6828 21.9854 18.56 21.94C18.3114 21.8463 18.1098 21.6581 17.9993 21.4165C17.8888 21.1749 17.8783 20.8994 17.97 20.65L20.97 12.65C21.0424 12.4592 21.171 12.2948 21.3389 12.1787C21.5068 12.0627 21.7059 12.0003 21.91 12C22.1128 12.0005 22.3106 12.0631 22.4769 12.1793C22.6431 12.2955 22.7698 12.4597 22.84 12.65L25.84 20.65C25.9337 20.898 25.9252 21.173 25.8165 21.4148C25.7078 21.6566 25.5077 21.8454 25.26 21.94C25.1473 21.9785 25.0291 21.9987 24.91 22C24.7058 22.0004 24.5063 21.9383 24.3383 21.8222C24.1703 21.706 24.0418 21.5412 23.97 21.35L23.46 20H20.35ZM39.44 55C30.6 55 23.07 47.81 23 39.29C22.9775 37.1956 23.3756 35.118 24.171 33.1804C24.9663 31.2428 26.1425 29.4846 27.63 28.01C29.1204 26.5145 30.8929 25.3298 32.8447 24.5247C34.7965 23.7197 36.8887 23.3102 39 23.32H39.14C43.3749 23.4534 47.3932 25.223 50.3507 28.257C53.3082 31.291 54.9747 35.3531 55 39.59V42.81C54.9194 47.2937 56.5254 51.6442 59.5 55H39.44ZM42.86 42.45C43.6109 41.2699 44.0066 39.8987 44 38.5C44 34.92 41.53 32 38.5 32C35.47 32 33 34.92 33 38.5C33 42.08 35.47 45 38.5 45C39.5976 44.9887 40.6601 44.6122 41.52 43.93L43.29 45.71C43.4796 45.8959 43.7345 46.0001 44 46.0001C44.2655 46.0001 44.5205 45.8959 44.71 45.71C44.8974 45.5212 45.0025 45.266 45.0025 45C45.0025 44.734 44.8974 44.4788 44.71 44.29L42.86 42.45ZM41.41 41L40.71 40.29C40.5217 40.1017 40.2663 39.9959 40 39.9959C39.7337 39.9959 39.4783 40.1017 39.29 40.29C39.1017 40.4783 38.9959 40.7337 38.9959 41C38.9959 41.2663 39.1017 41.5217 39.29 41.71L40.08 42.49C39.6162 42.8143 39.0659 42.9919 38.5 43C36.57 43 35 40.98 35 38.5C35 36.02 36.57 34 38.5 34C40.43 34 42 36.02 42 38.5C42.0039 39.3683 41.8017 40.2251 41.41 41ZM21.1 18H22.71L21.91 15.85L21.1 18ZM21.91 15.85L21.1 18H22.71L21.91 15.85ZM21.91 15.85L21.1 18H22.71L21.91 15.85Z" fill="#F2F2F2"/>
</svg>
