<svg width="64" height="64" viewBox="0 0 64 64" fill="none" xmlns="http://www.w3.org/2000/svg">
<path d="M59.6369 41.81C59.4797 41.8096 59.3247 41.7722 59.1846 41.7009C59.0445 41.6295 58.9231 41.5262 58.8304 41.3992C58.7376 41.2723 58.676 41.1253 58.6505 40.9701C58.6251 40.8149 58.6365 40.6559 58.6839 40.506C58.8779 39.897 59.0539 39.272 59.2049 38.648C59.2343 38.5186 59.289 38.3964 59.3661 38.2883C59.4431 38.1803 59.5408 38.0887 59.6536 38.0189C59.7664 37.949 59.892 37.9023 60.023 37.8814C60.154 37.8605 60.2878 37.866 60.4167 37.8973C60.5457 37.9287 60.667 37.9854 60.7738 38.0642C60.8806 38.1429 60.9706 38.2421 61.0386 38.356C61.1067 38.4699 61.1514 38.5962 61.1702 38.7275C61.1889 38.8589 61.1814 38.9926 61.1479 39.121C60.9859 39.79 60.7979 40.461 60.5889 41.113C60.5247 41.3151 60.3978 41.4916 60.2267 41.6169C60.0556 41.7422 59.849 41.8098 59.6369 41.81ZM60.8529 35.945C60.7131 35.9451 60.5748 35.916 60.4469 35.8593C60.3191 35.8027 60.2045 35.7199 60.1106 35.6162C60.0168 35.5125 59.9457 35.3903 59.902 35.2575C59.8583 35.1247 59.8429 34.9841 59.8569 34.845C59.9209 34.209 59.9639 33.561 59.9849 32.917C59.9865 32.7848 60.0148 32.6543 60.0681 32.5334C60.1214 32.4124 60.1986 32.3035 60.2951 32.2131C60.3916 32.1228 60.5054 32.0529 60.6296 32.0077C60.7539 31.9625 60.8859 31.9428 61.0179 31.95C61.2828 31.9589 61.5334 32.0726 61.7145 32.2661C61.8957 32.4596 61.9926 32.7171 61.9839 32.982C61.9614 33.671 61.9157 34.3591 61.8469 35.045C61.8222 35.2915 61.7068 35.52 61.5231 35.6863C61.3395 35.8526 61.1007 35.9448 60.8529 35.945V35.945ZM60.8419 29.955C60.5947 29.9548 60.3562 29.8631 60.1727 29.6974C59.9891 29.5317 59.8734 29.304 59.8479 29.058C59.7816 28.4184 59.6929 27.7814 59.5819 27.148C59.5587 27.0184 59.5612 26.8855 59.5894 26.7568C59.6177 26.6282 59.671 26.5064 59.7465 26.3985C59.8219 26.2905 59.9179 26.1985 60.029 26.1278C60.14 26.0571 60.264 26.0089 60.3937 25.9862C60.5234 25.9635 60.6563 25.9666 60.7848 25.9954C60.9133 26.0242 61.0349 26.0781 61.1425 26.154C61.2501 26.2299 61.3417 26.3263 61.4119 26.4377C61.4822 26.549 61.5298 26.6732 61.5519 26.803C61.6719 27.483 61.7669 28.172 61.8379 28.853C61.8648 29.1166 61.7859 29.38 61.6187 29.5855C61.4514 29.791 61.2095 29.9217 60.9459 29.949C60.9114 29.9533 60.8767 29.9556 60.8419 29.956V29.955ZM59.6079 24.097C59.3963 24.0968 59.1901 24.0296 59.019 23.9049C58.848 23.7802 58.7209 23.6045 58.6559 23.403C58.4594 22.7918 58.2413 22.1877 58.0019 21.592C57.9518 21.4699 57.9264 21.3391 57.9271 21.2071C57.9278 21.0752 57.9546 20.9446 58.0059 20.8231C58.0573 20.7015 58.1322 20.5913 58.2264 20.4988C58.3205 20.4064 58.4321 20.3335 58.5545 20.2843C58.677 20.2351 58.808 20.2107 58.94 20.2124C59.0719 20.2141 59.2023 20.2419 59.3234 20.2942C59.4446 20.3465 59.5542 20.4223 59.6459 20.5172C59.7377 20.6121 59.8097 20.7241 59.8579 20.847C60.1149 21.487 60.3509 22.141 60.5599 22.791C60.6079 22.941 60.6198 23.1002 60.5947 23.2556C60.5696 23.4111 60.5082 23.5584 60.4154 23.6856C60.3227 23.8129 60.2012 23.9165 60.0609 23.9879C59.9206 24.0594 59.7654 24.0968 59.6079 24.097V24.097ZM57.1929 18.624C57.0166 18.6242 56.8433 18.5778 56.6907 18.4895C56.5381 18.4011 56.4116 18.274 56.3239 18.121C56.0039 17.563 55.6629 17.011 55.3089 16.481C55.1617 16.2603 55.1082 15.9902 55.1602 15.7301C55.2121 15.47 55.3653 15.2412 55.5859 15.094C55.8066 14.9468 56.0767 14.8933 56.3368 14.9452C56.5969 14.9972 56.8257 15.1503 56.9729 15.371C57.3519 15.938 57.7169 16.531 58.0599 17.127C58.147 17.279 58.1926 17.4512 58.1922 17.6264C58.1918 17.8016 58.1453 17.9736 58.0575 18.1252C57.9697 18.2768 57.8437 18.4026 57.6919 18.4902C57.5402 18.5777 57.3681 18.6239 57.1929 18.624V18.624ZM53.6999 13.761C53.5582 13.7613 53.4179 13.7314 53.2886 13.6733C53.1593 13.6152 53.0438 13.5302 52.9499 13.424C52.5269 12.947 52.0799 12.476 51.6219 12.025C51.4451 11.8368 51.348 11.5875 51.3508 11.3293C51.3537 11.0711 51.4563 10.824 51.6372 10.6397C51.8181 10.4555 52.0632 10.3483 52.3214 10.3407C52.5795 10.3331 52.8305 10.4257 53.0219 10.599C53.5139 11.082 53.9939 11.586 54.4479 12.099C54.5753 12.2432 54.6584 12.4211 54.6872 12.6113C54.716 12.8015 54.6893 12.996 54.6103 13.1714C54.5314 13.3468 54.4035 13.4958 54.242 13.6004C54.0805 13.7049 53.8923 13.7607 53.6999 13.761V13.761ZM49.2859 9.713C49.0709 9.71343 48.8615 9.64433 48.6889 9.516C48.1779 9.135 47.6429 8.766 47.1009 8.417C46.8825 8.27166 46.73 8.04633 46.6762 7.78957C46.6224 7.53282 46.6717 7.26521 46.8133 7.04443C46.955 6.82365 47.1778 6.66738 47.4336 6.60931C47.6894 6.55124 47.9578 6.59602 48.1809 6.734C48.7629 7.107 49.3349 7.503 49.8839 7.911C50.0526 8.03662 50.1774 8.21223 50.2405 8.41284C50.3036 8.61346 50.3019 8.82887 50.2356 9.02844C50.1692 9.22801 50.0416 9.40159 49.871 9.52449C49.7003 9.64739 49.4952 9.71335 49.2849 9.713H49.2859ZM44.1359 6.653C43.9912 6.65333 43.8482 6.62192 43.7169 6.561C43.1324 6.29157 42.5387 6.04242 41.9369 5.814C41.6944 5.71619 41.4998 5.52726 41.395 5.28772C41.2901 5.04818 41.2832 4.77707 41.3758 4.53251C41.4683 4.28794 41.6531 4.08938 41.8903 3.97937C42.1275 3.86936 42.3984 3.85667 42.6449 3.944C43.2889 4.188 43.9319 4.458 44.5549 4.746C44.762 4.84154 44.9302 5.00499 45.0316 5.20924C45.133 5.41349 45.1616 5.64627 45.1126 5.86898C45.0636 6.09169 44.9399 6.29096 44.7621 6.43374C44.5843 6.57652 44.363 6.65424 44.1349 6.654L44.1359 6.653ZM38.4629 4.723C38.3882 4.72304 38.3138 4.71465 38.2409 4.698C37.6137 4.55534 36.9816 4.4346 36.3459 4.336C36.2144 4.31787 36.0878 4.27373 35.9735 4.20616C35.8593 4.13859 35.7596 4.04894 35.6803 3.94243C35.601 3.83593 35.5438 3.71471 35.5118 3.58584C35.4799 3.45697 35.474 3.32304 35.4944 3.19185C35.5147 3.06066 35.561 2.93484 35.6306 2.82173C35.7001 2.70862 35.7914 2.61049 35.8993 2.53306C36.0071 2.45563 36.1293 2.40045 36.2587 2.37073C36.3881 2.34102 36.5221 2.33737 36.6529 2.36C37.3309 2.466 38.0149 2.596 38.6829 2.749C38.9225 2.80359 39.1335 2.94444 39.2758 3.14468C39.4182 3.34492 39.4818 3.59055 39.4546 3.83471C39.4274 4.07887 39.3113 4.30447 39.1284 4.46849C38.9455 4.63251 38.7086 4.72346 38.4629 4.724V4.723ZM30.5179 4.037C30.2562 4.03818 30.0044 3.93669 29.8166 3.75431C29.6289 3.57192 29.5201 3.32319 29.5137 3.06152C29.5073 2.79984 29.6037 2.54608 29.7823 2.35472C29.9609 2.16335 30.2074 2.04964 30.4689 2.038C31.1529 2.004 31.8426 1.993 32.5379 2.005C32.6693 2.0075 32.7988 2.03583 32.9192 2.08839C33.0395 2.14095 33.1484 2.21671 33.2395 2.31133C33.3306 2.40595 33.4021 2.51759 33.4501 2.63987C33.498 2.76215 33.5214 2.89268 33.5189 3.024C33.5164 3.15532 33.4881 3.28487 33.4355 3.40524C33.383 3.52561 33.3072 3.63445 33.2126 3.72554C33.118 3.81664 33.0063 3.8882 32.8841 3.93615C32.7618 3.9841 32.6313 4.0075 32.4999 4.005L31.9799 4C31.5066 4 31.0366 4.01167 30.5699 4.035C30.5526 4.03612 30.5353 4.03679 30.5179 4.037V4.037ZM32.6649 61.993C32.3997 61.9958 32.1443 61.8931 31.9548 61.7075C31.7652 61.522 31.6572 61.2687 31.6544 61.0035C31.6516 60.7383 31.7543 60.4828 31.9399 60.2933C32.1255 60.1038 32.3787 59.9958 32.6439 59.993C33.2869 59.979 33.9349 59.943 34.5709 59.884C34.8351 59.86 35.098 59.9419 35.3017 60.1117C35.5055 60.2815 35.6334 60.5253 35.6574 60.7895C35.6814 61.0537 35.5995 61.3165 35.4297 61.5203C35.2599 61.724 35.0161 61.852 34.7519 61.876C34.0709 61.938 33.3759 61.977 32.6869 61.993H32.6649ZM28.6749 61.81C28.6365 61.8098 28.5981 61.8075 28.5599 61.803C27.875 61.7247 27.1929 61.623 26.5149 61.498C26.2541 61.4497 26.0231 61.2998 25.8728 61.0812C25.7225 60.8627 25.6652 60.5933 25.7134 60.3325C25.7617 60.0717 25.9116 59.8407 26.1302 59.6904C26.3488 59.5401 26.6181 59.4827 26.8789 59.531C27.5079 59.647 28.1499 59.743 28.7869 59.816C29.0414 59.844 29.2754 59.9685 29.4408 60.1638C29.6062 60.3592 29.6904 60.6105 29.676 60.8661C29.6617 61.1216 29.5499 61.362 29.3636 61.5376C29.1774 61.7132 28.9309 61.8107 28.6749 61.81V61.81ZM38.6059 61.244C38.3605 61.2439 38.1237 61.1535 37.9406 60.9901C37.7575 60.8266 37.6409 60.6016 37.613 60.3577C37.5851 60.1139 37.6478 59.8683 37.7892 59.6677C37.9306 59.4672 38.1409 59.3256 38.3799 59.27C38.9999 59.125 39.6279 58.956 40.2429 58.767C40.3694 58.7247 40.5031 58.7082 40.636 58.7183C40.769 58.7284 40.8986 58.7651 41.0172 58.826C41.1358 58.887 41.241 58.9711 41.3266 59.0733C41.4123 59.1755 41.4766 59.2939 41.5158 59.4213C41.555 59.5488 41.5684 59.6828 41.555 59.8155C41.5417 59.9482 41.5019 60.0768 41.4381 60.1939C41.3743 60.311 41.2877 60.4142 41.1834 60.4973C41.0792 60.5804 40.9593 60.6419 40.8309 60.678C40.1717 60.881 39.5056 61.0611 38.8339 61.218C38.7592 61.2352 38.6827 61.2439 38.6059 61.244V61.244ZM22.8269 60.52C22.7195 60.5198 22.6128 60.5023 22.5109 60.468C21.8561 60.2499 21.209 60.0091 20.5709 59.746C20.4454 59.699 20.3306 59.6272 20.2334 59.5349C20.1361 59.4426 20.0584 59.3317 20.0049 59.2087C19.9514 59.0858 19.9231 58.9534 19.9218 58.8193C19.9205 58.6853 19.9462 58.5523 19.9973 58.4284C20.0484 58.3044 20.1239 58.192 20.2193 58.0978C20.3148 58.0037 20.4281 57.9296 20.5527 57.8802C20.6773 57.8307 20.8106 57.8068 20.9446 57.8098C21.0787 57.8129 21.2107 57.8429 21.3329 57.898C21.9259 58.142 22.5349 58.368 23.1429 58.571C23.3684 58.6459 23.5599 58.7987 23.683 59.0019C23.8061 59.2051 23.8528 59.4455 23.8148 59.68C23.7767 59.9146 23.6565 60.1279 23.4754 60.2818C23.2944 60.4357 23.0645 60.5202 22.8269 60.52V60.52ZM17.3689 58.045C17.1918 58.0453 17.0178 57.9984 16.8649 57.909C16.2693 57.5603 15.686 57.1911 15.1159 56.802C14.8969 56.6524 14.7462 56.4219 14.6971 56.1613C14.6479 55.9006 14.7044 55.6311 14.8539 55.412C15.0035 55.1929 15.234 55.0423 15.4947 54.9931C15.7553 54.944 16.0249 55.0004 16.2439 55.15C16.7719 55.51 17.3209 55.858 17.8739 56.182C18.0635 56.2929 18.2112 56.4632 18.2943 56.6664C18.3774 56.8697 18.3914 57.0947 18.3339 57.3066C18.2764 57.5186 18.1508 57.7057 17.9764 57.8392C17.802 57.9726 17.5885 58.045 17.3689 58.045V58.045ZM12.5389 54.502C12.2912 54.5019 12.0523 54.4096 11.8689 54.243C11.3578 53.7799 10.8625 53.2996 10.3839 52.803C10.2889 52.7093 10.2136 52.5975 10.1625 52.4742C10.1113 52.3509 10.0854 52.2186 10.0862 52.0851C10.087 51.9516 10.1145 51.8197 10.1671 51.697C10.2197 51.5743 10.2963 51.4634 10.3924 51.3708C10.4886 51.2782 10.6023 51.2058 10.7268 51.1578C10.8514 51.1099 10.9843 51.0873 11.1177 51.0915C11.2511 51.0957 11.3823 51.1266 11.5036 51.1823C11.6249 51.2381 11.7338 51.3175 11.8239 51.416C12.2699 51.878 12.7369 52.331 13.2099 52.76C13.3599 52.8955 13.4653 53.0733 13.5122 53.2699C13.5591 53.4666 13.5454 53.6728 13.4727 53.8614C13.4 54.0501 13.2719 54.2123 13.1052 54.3266C12.9385 54.441 12.7411 54.5021 12.5389 54.502V54.502ZM8.53893 50.048C8.38096 50.0483 8.22518 50.0111 8.08438 49.9394C7.94357 49.8678 7.82176 49.7638 7.72894 49.636C7.32383 49.0788 6.93761 48.5082 6.57094 47.925C6.50101 47.8138 6.45366 47.69 6.43159 47.5605C6.40953 47.4311 6.41318 47.2985 6.44233 47.1705C6.47149 47.0424 6.52559 46.9214 6.60153 46.8142C6.67747 46.7071 6.77377 46.6159 6.88493 46.546C6.9961 46.4761 7.11995 46.4287 7.24941 46.4067C7.37887 46.3846 7.51141 46.3882 7.63947 46.4174C7.76752 46.4466 7.88857 46.5007 7.99572 46.5766C8.10287 46.6525 8.19401 46.7488 8.26394 46.86C8.60694 47.405 8.97093 47.943 9.34593 48.46C9.4543 48.6091 9.51936 48.7852 9.53394 48.9689C9.54852 49.1526 9.51205 49.3368 9.42856 49.501C9.34507 49.6653 9.21781 49.8034 9.06082 49.8999C8.90383 49.9964 8.72322 50.0477 8.53893 50.048V50.048ZM5.53293 44.872C5.34023 44.872 5.15164 44.8163 4.98985 44.7116C4.82805 44.6069 4.69994 44.4578 4.62093 44.282C4.33832 43.6532 4.0775 43.0148 3.83894 42.368C3.7473 42.1191 3.7583 41.844 3.86951 41.6032C3.98072 41.3624 4.18303 41.1756 4.43194 41.084C4.68084 40.9924 4.95595 41.0034 5.19675 41.1146C5.43755 41.2258 5.6243 41.4281 5.71593 41.677C5.93793 42.278 6.18294 42.879 6.44494 43.461C6.51334 43.6133 6.54253 43.7804 6.52987 43.9469C6.51721 44.1134 6.46309 44.2741 6.37244 44.4144C6.28178 44.5546 6.15748 44.67 6.01085 44.7499C5.86423 44.8298 5.69993 44.8718 5.53293 44.872V44.872ZM3.65994 39.186C3.4319 39.1858 3.2108 39.1076 3.03328 38.9645C2.85577 38.8213 2.73251 38.6218 2.68394 38.399C2.53676 37.7249 2.41335 37.0458 2.31393 36.363C2.29509 36.233 2.30204 36.1005 2.33438 35.9732C2.36672 35.8459 2.42382 35.7262 2.50243 35.6209C2.66118 35.4084 2.89787 35.2676 3.16044 35.2295C3.423 35.1914 3.68993 35.2592 3.9025 35.418C4.11507 35.5767 4.25588 35.8134 4.29394 36.076C4.38594 36.709 4.50193 37.347 4.63793 37.973C4.66978 38.1191 4.66847 38.2704 4.6341 38.4159C4.59974 38.5614 4.53319 38.6973 4.43937 38.8137C4.34554 38.93 4.22681 39.0239 4.09193 39.0883C3.95704 39.1528 3.80942 39.1861 3.65994 39.186V39.186Z" fill="#001D6E"/>
<path d="M44.71 44.29L42.86 42.45C43.6108 41.2699 44.0065 39.8987 44 38.5C44 34.92 41.53 32 38.5 32C35.47 32 33 34.92 33 38.5C33 42.08 35.47 45 38.5 45C39.5975 44.9887 40.6601 44.6122 41.52 43.93L43.29 45.71C43.4795 45.8959 43.7344 46.0001 44 46.0001C44.2655 46.0001 44.5204 45.8959 44.71 45.71C44.8973 45.5212 45.0024 45.266 45.0024 45C45.0024 44.734 44.8973 44.4788 44.71 44.29V44.29ZM41.41 41L40.71 40.29C40.5217 40.1017 40.2663 39.9959 40 39.9959C39.7337 39.9959 39.4783 40.1017 39.29 40.29C39.1017 40.4783 38.9959 40.7337 38.9959 41C38.9959 41.2663 39.1017 41.5217 39.29 41.71L40.08 42.49C39.6162 42.8143 39.0658 42.9919 38.5 43C36.57 43 35 40.98 35 38.5C35 36.02 36.57 34 38.5 34C40.43 34 42 36.02 42 38.5C42.0039 39.3683 41.8017 40.2251 41.41 41ZM44.71 44.29L42.86 42.45C43.6108 41.2699 44.0065 39.8987 44 38.5C44 34.92 41.53 32 38.5 32C35.47 32 33 34.92 33 38.5C33 42.08 35.47 45 38.5 45C39.5975 44.9887 40.6601 44.6122 41.52 43.93L43.29 45.71C43.4795 45.8959 43.7344 46.0001 44 46.0001C44.2655 46.0001 44.5204 45.8959 44.71 45.71C44.8973 45.5212 45.0024 45.266 45.0024 45C45.0024 44.734 44.8973 44.4788 44.71 44.29V44.29ZM41.41 41L40.71 40.29C40.5217 40.1017 40.2663 39.9959 40 39.9959C39.7337 39.9959 39.4783 40.1017 39.29 40.29C39.1017 40.4783 38.9959 40.7337 38.9959 41C38.9959 41.2663 39.1017 41.5217 39.29 41.71L40.08 42.49C39.6162 42.8143 39.0658 42.9919 38.5 43C36.57 43 35 40.98 35 38.5C35 36.02 36.57 34 38.5 34C40.43 34 42 36.02 42 38.5C42.0039 39.3683 41.8017 40.2251 41.41 41ZM62.63 55.23C60.8181 53.7163 59.3709 51.8135 58.3961 49.6632C57.4214 47.5128 56.9441 45.1703 57 42.81V39.59C57 29.76 48.83 21.4 39.15 21.32C38.2532 21.3175 37.3574 21.381 36.47 21.51C36.811 20.3059 36.9893 19.0615 37 17.81C37.0193 15.7845 36.6328 13.7757 35.8634 11.9019C35.094 10.0281 33.9571 8.32741 32.52 6.9C31.0672 5.44041 29.3361 4.28737 27.4294 3.50923C25.5227 2.73109 23.4792 2.34369 21.42 2.37C17.3346 2.49606 13.4569 4.19958 10.6005 7.12309C7.74412 10.0466 6.13111 13.9628 6.09996 18.05V20.79C6.1477 22.7739 5.74717 24.743 4.9282 26.5506C4.10924 28.3582 2.89295 29.9577 1.36996 31.23C1.20949 31.36 1.09344 31.5367 1.03789 31.7355C0.982346 31.9344 0.990058 32.1457 1.05996 32.34C1.13057 32.5328 1.25848 32.6994 1.42651 32.8173C1.59454 32.9353 1.79465 32.9991 1.99996 33H21.18C21.5 33 21.81 32.98 22.13 32.96C21.3669 34.9894 20.9839 37.1419 21 39.31C21.08 48.9 29.52 57 39.44 57H62C62.2053 56.9991 62.4054 56.9353 62.5734 56.8173C62.7414 56.6994 62.8693 56.5328 62.94 56.34C63.0099 56.1457 63.0176 55.9344 62.962 55.7355C62.9065 55.5367 62.7904 55.36 62.63 55.23V55.23ZM20.35 20L19.84 21.35C19.7947 21.4728 19.7257 21.5855 19.6369 21.6817C19.5481 21.7778 19.4411 21.8555 19.3223 21.9103C19.2034 21.9651 19.0749 21.996 18.9441 22.001C18.8133 22.0061 18.6827 21.9854 18.56 21.94C18.3113 21.8463 18.1098 21.6581 17.9993 21.4165C17.8888 21.1749 17.8782 20.8994 17.97 20.65L20.97 12.65C21.0423 12.4592 21.171 12.2948 21.3388 12.1787C21.5067 12.0627 21.7059 12.0003 21.91 12C22.1128 12.0005 22.3106 12.0631 22.4768 12.1793C22.6431 12.2955 22.7698 12.4597 22.84 12.65L25.84 20.65C25.9336 20.898 25.9251 21.173 25.8164 21.4148C25.7077 21.6566 25.5076 21.8454 25.26 21.94C25.1472 21.9785 25.0291 21.9987 24.91 22C24.7057 22.0004 24.5062 21.9383 24.3382 21.8222C24.1702 21.706 24.0417 21.5412 23.97 21.35L23.46 20H20.35ZM39.44 55C30.6 55 23.07 47.81 23 39.29C22.9774 37.1956 23.3756 35.118 24.1709 33.1804C24.9662 31.2428 26.1425 29.4846 27.63 28.01C29.1203 26.5145 30.8928 25.3298 32.8446 24.5247C34.7964 23.7197 36.8887 23.3101 39 23.32H39.14C43.3748 23.4534 47.3931 25.223 50.3506 28.257C53.3082 31.291 54.9746 35.3531 55 39.59V42.81C54.9193 47.2937 56.5253 51.6442 59.5 55H39.44ZM42.86 42.45C43.6108 41.2699 44.0065 39.8987 44 38.5C44 34.92 41.53 32 38.5 32C35.47 32 33 34.92 33 38.5C33 42.08 35.47 45 38.5 45C39.5975 44.9887 40.6601 44.6122 41.52 43.93L43.29 45.71C43.4795 45.8959 43.7344 46.0001 44 46.0001C44.2655 46.0001 44.5204 45.8959 44.71 45.71C44.8973 45.5212 45.0024 45.266 45.0024 45C45.0024 44.734 44.8973 44.4788 44.71 44.29L42.86 42.45ZM41.41 41L40.71 40.29C40.5217 40.1017 40.2663 39.9959 40 39.9959C39.7337 39.9959 39.4783 40.1017 39.29 40.29C39.1017 40.4783 38.9959 40.7337 38.9959 41C38.9959 41.2663 39.1017 41.5217 39.29 41.71L40.08 42.49C39.6162 42.8143 39.0658 42.9919 38.5 43C36.57 43 35 40.98 35 38.5C35 36.02 36.57 34 38.5 34C40.43 34 42 36.02 42 38.5C42.0039 39.3683 41.8017 40.2251 41.41 41ZM21.1 18H22.71L21.91 15.85L21.1 18ZM21.91 15.85L21.1 18H22.71L21.91 15.85ZM21.91 15.85L21.1 18H22.71L21.91 15.85Z" fill="#001D6E"/>
</svg>
