<svg width="40" height="40" viewBox="0 0 40 40" fill="none" xmlns="http://www.w3.org/2000/svg">
<g clip-path="url(#clip0_204_150)">
<path d="M34.0209 5.81282C30.2772 2.06655 25.2992 0.00228568 19.9955 0C9.06639 0 0.172303 8.89125 0.167928 19.8199C0.166655 23.3132 1.07943 26.7233 2.81436 29.7291L0.00146484 40L10.5123 37.2439C13.4082 38.8233 16.6688 39.6555 19.987 39.6568H19.9954H19.9955C30.9228 39.6568 39.8183 30.764 39.8229 19.8359C39.8247 14.5394 37.7641 9.55935 34.0209 5.81282V5.81282ZM19.9955 36.3092H19.9891C17.0314 36.3076 14.1311 35.5136 11.6013 34.0124L10.9993 33.6555L4.76193 35.2909L6.42721 29.2117L6.03495 28.5885C4.38518 25.9653 3.51424 22.9339 3.51548 19.8211C3.5191 10.7376 10.9115 3.34778 20.0017 3.34778C24.4037 3.34961 28.541 5.06544 31.6526 8.17922C34.7641 11.293 36.4764 15.4323 36.475 19.8345C36.4712 28.9183 29.0785 36.3092 19.9955 36.3092V36.3092Z" fill="#E0E0E0"/>
<path d="M0.911621 38.8603L3.59603 29.0587C1.93992 26.1901 1.06901 22.9355 1.07005 19.6024C1.07439 9.17321 9.56228 0.688354 19.9912 0.688354C25.0529 0.69064 29.8036 2.66051 33.3755 6.23574C36.9481 9.81095 38.9145 14.5632 38.9124 19.6172C38.9081 30.0466 30.4196 38.5322 19.992 38.5322C19.9912 38.5322 19.9925 38.5322 19.992 38.5322H19.9836C16.817 38.5312 13.7056 37.7363 10.9421 36.2302L0.911621 38.8603V38.8603Z" fill="#20B038"/>
<path fill-rule="evenodd" clip-rule="evenodd" d="M15.0958 11.4054C14.729 10.5898 14.3428 10.5735 13.9938 10.5592C13.7083 10.547 13.3815 10.5477 13.0553 10.5477C12.7287 10.5477 12.1981 10.6704 11.7494 11.1605C11.3004 11.6505 10.0352 12.8352 10.0352 15.2446C10.0352 17.6543 11.7902 19.9826 12.0349 20.3096C12.2798 20.6361 15.4228 25.7386 20.4006 27.7016C24.5375 29.333 25.3793 29.0085 26.2773 28.9268C27.1752 28.8452 29.1747 27.7424 29.5829 26.5988C29.991 25.4554 29.991 24.4754 29.8686 24.2705C29.7461 24.0664 29.4196 23.944 28.9298 23.6991C28.44 23.4542 26.0324 22.2693 25.5834 22.106C25.1345 21.9427 24.8079 21.8611 24.4814 22.3514C24.1549 22.8412 23.2169 23.944 22.9312 24.2705C22.6454 24.5978 22.3597 24.6386 21.8699 24.3937C21.3802 24.148 19.8029 23.6315 17.9317 21.9631C16.4759 20.6652 15.493 19.0621 15.2073 18.5718C14.9216 18.082 15.1766 17.8167 15.4223 17.5726C15.6422 17.3532 15.9121 17.0009 16.157 16.7149C16.4014 16.429 16.483 16.2249 16.6463 15.8984C16.8095 15.5713 16.7279 15.2854 16.6055 15.0405C16.483 14.7956 15.5312 12.3737 15.0958 11.4054V11.4054Z" fill="white"/>
<path d="M33.8589 5.74984C30.1581 2.04657 25.2373 0.00604148 19.9945 0.00372314C9.19084 0.00372314 0.39886 8.7929 0.394517 19.5961C0.393244 23.0494 1.29553 26.4202 3.01055 29.3916L0.22998 39.5445L10.6201 36.8201C13.4829 38.3812 16.706 39.204 19.9861 39.2052H19.9944H19.9945C30.7964 39.2052 39.5897 30.4145 39.5943 19.6119C39.5961 14.3762 37.5591 9.45336 33.8589 5.74984V5.74984ZM19.9945 35.8961H19.9882C17.0645 35.8946 14.1974 35.1096 11.6967 33.6257L11.1015 33.2729L4.93578 34.8895L6.58193 28.8801L6.19418 28.2641C4.56334 25.671 3.70239 22.6743 3.70367 19.5974C3.70722 10.6181 11.0148 3.31313 20.0007 3.31313C24.3521 3.31493 28.4419 5.01107 31.5179 8.0891C34.5936 11.1671 36.2862 15.2589 36.2849 19.6107C36.281 28.5901 28.9732 35.8961 19.9945 35.8961Z" fill="white"/>
</g>
<defs>
<clipPath id="clip0_204_150">
<rect width="39.824" height="40" fill="white"/>
</clipPath>
</defs>
</svg>
