<svg width="245" height="245" viewBox="0 0 245 245" fill="none" xmlns="http://www.w3.org/2000/svg">
<path d="M200.37 122.096C200.368 139.033 194.872 155.512 184.708 169.06C174.543 182.607 160.258 192.492 143.998 197.231C127.737 201.969 110.378 201.305 94.5272 195.339C78.6761 189.372 65.188 178.425 56.0878 164.141C46.9877 149.856 42.7665 133.005 44.058 116.118C45.3496 99.2303 52.0841 83.2174 63.2506 70.4829C74.4171 57.7484 89.4131 48.9796 105.987 45.4929C122.561 42.0063 139.819 43.9898 155.17 51.1459L173.69 11.4459C149.749 0.277376 122.83 -2.82342 96.9766 2.60902C71.1229 8.04146 47.7289 21.714 30.3072 41.5738C12.8855 61.4336 2.37623 86.4089 0.357167 112.75C-1.6619 139.091 4.91825 165.376 19.1097 187.659C33.3011 209.942 54.3379 227.02 79.0617 236.33C103.785 245.639 130.862 246.677 156.226 239.288C181.59 231.898 203.872 216.481 219.728 195.35C235.584 174.219 244.157 148.514 244.16 122.096H200.37Z" fill="url(#paint0_linear_115_185)"/>
<path d="M141.22 126.346C138.114 128.262 134.379 128.879 130.822 128.063C127.265 127.247 124.171 125.064 122.211 121.985C120.251 118.907 119.581 115.181 120.346 111.612C121.111 108.044 123.25 104.92 126.3 102.916L141.18 93.4359C139.805 92.512 138.365 91.6898 136.87 90.9759C129.925 87.6739 122.074 86.7908 114.569 88.4672C107.063 90.1436 100.335 94.2831 95.4542 100.227C90.5739 106.17 87.8225 113.575 87.6383 121.264C87.4541 128.952 89.8477 136.481 94.4379 142.651C99.0281 148.821 105.551 153.278 112.967 155.312C120.384 157.346 128.268 156.84 135.364 153.874C142.459 150.908 148.358 145.654 152.122 138.947C155.885 132.24 157.296 124.467 156.13 116.866L141.22 126.346Z" fill="url(#paint1_radial_115_185)"/>
<path d="M199.43 72.786L208.25 35.606L172.5 58.376C171.658 58.9098 170.93 59.6053 170.358 60.4224C169.787 61.2394 169.383 62.1618 169.17 63.136L163.34 89.426C162.917 91.3841 163.287 93.43 164.368 95.1164C165.45 96.8028 167.154 97.9927 169.11 98.4259L195.4 104.276C197.361 104.711 199.414 104.352 201.11 103.276L236.87 80.516L199.43 72.786Z" fill="url(#paint2_linear_115_185)"/>
<defs>
<linearGradient id="paint0_linear_115_185" x1="46.7001" y1="29.5359" x2="186.13" y2="226.346" gradientUnits="userSpaceOnUse">
<stop stop-color="#D4DEE6"/>
<stop offset="1" stop-color="#6D8FAB"/>
</linearGradient>
<radialGradient id="paint1_radial_115_185" cx="0" cy="0" r="1" gradientUnits="userSpaceOnUse" gradientTransform="translate(96.5364 75.8251) scale(155.178 155.178)">
<stop stop-color="#FF0040"/>
<stop offset="0.74" stop-color="#6B001B"/>
<stop offset="1" stop-color="#3929B3"/>
</radialGradient>
<linearGradient id="paint2_linear_115_185" x1="180.4" y1="53.526" x2="207.08" y2="98.826" gradientUnits="userSpaceOnUse">
<stop stop-color="#43C8E6"/>
<stop offset="0.79" stop-color="#0075B0"/>
<stop offset="1" stop-color="#0085BE"/>
</linearGradient>
</defs>
</svg>
