<svg width="119" height="119" viewBox="0 0 119 119" fill="none" xmlns="http://www.w3.org/2000/svg">
<path d="M97.2401 59.2559C97.2421 67.4796 94.5763 75.482 89.643 82.0615C84.7096 88.6411 77.7749 93.4427 69.8802 95.7453C61.9855 98.048 53.5569 97.7274 45.8599 94.8318C38.1629 91.9362 31.6129 86.6218 27.1936 79.6865C22.7742 72.7513 20.7239 64.5695 21.3505 56.3698C21.9772 48.17 25.2469 40.3948 30.6689 34.2117C36.0908 28.0286 43.3722 23.7711 51.4198 22.0788C59.4675 20.3864 67.8469 21.3503 75.3001 24.8259L84.3001 5.55592C72.6804 0.134988 59.6158 -1.37034 47.0678 1.26596C34.5198 3.90225 23.1656 10.5379 14.7099 20.1766C6.25423 29.8153 1.15344 41.9368 0.173386 54.7212C-0.806666 67.5057 2.38691 80.2631 9.27461 91.078C16.1623 101.893 26.3724 110.182 38.372 114.7C50.3715 119.218 63.5129 119.721 75.8231 116.135C88.1332 112.549 98.9478 105.065 106.643 94.8095C114.338 84.5534 118.499 72.0779 118.5 59.2559H97.2401Z" fill="white"/>
<path d="M68.53 61.3259C67.7834 61.8112 66.9481 62.1437 66.0723 62.3043C65.1965 62.4649 64.2975 62.4503 63.4273 62.2615C62.5572 62.0726 61.7331 61.7132 61.0026 61.2041C60.2721 60.6949 59.6498 60.046 59.1715 59.295C58.6933 58.5439 58.3686 57.7055 58.2162 56.8282C58.0638 55.9509 58.0868 55.0522 58.2838 54.1838C58.4808 53.3154 58.8478 52.4947 59.3638 51.7691C59.8798 51.0434 60.5345 50.4271 61.29 49.9559L68.51 45.3459C65.3165 43.2104 61.4856 42.2383 57.6602 42.5927C53.8348 42.9472 50.2478 44.6066 47.501 47.2925C44.7542 49.9785 43.0148 53.5274 42.5748 57.3439C42.1348 61.1604 43.0208 65.0121 45.0843 68.2526C47.1478 71.4932 50.2631 73.9254 53.9074 75.1411C57.5517 76.3568 61.5033 76.282 65.099 74.9292C68.6948 73.5765 71.7158 71.0281 73.6551 67.7118C75.5945 64.3955 76.3341 60.513 75.75 56.7159L68.53 61.3259Z" fill="white"/>
<path d="M96.7901 35.3259L101.06 17.3259L83.7101 28.3359C83.3025 28.5956 82.9504 28.9334 82.674 29.3299C82.3977 29.7264 82.2026 30.1737 82.1001 30.6459L79.2701 43.4059C79.0584 44.358 79.2334 45.3552 79.7565 46.1783C80.2797 47.0015 81.1082 47.5833 82.0601 47.7959L94.8301 50.6259C95.7819 50.8336 96.7772 50.6576 97.6001 50.1359L114.95 39.0759L96.7901 35.3259Z" fill="white"/>
</svg>
