<svg width="60" height="60" viewBox="0 0 60 60" fill="none" xmlns="http://www.w3.org/2000/svg">
<path d="M49.2354 30.003C49.2365 34.1669 47.8867 38.2187 45.3888 41.5501C42.8909 44.8815 39.3797 47.3127 35.3824 48.4786C31.3851 49.6445 27.1174 49.4822 23.2202 48.0161C19.323 46.5499 16.0065 43.8591 13.7689 40.3476C11.5312 36.8361 10.4931 32.6934 10.8104 28.5416C11.1277 24.3899 12.7833 20.4531 15.5285 17.3224C18.2738 14.1917 21.9606 12.036 26.0354 11.1791C30.1101 10.3222 34.3529 10.8103 38.1266 12.5701L42.6836 2.81312C36.8002 0.0683482 30.1852 -0.693841 23.8318 0.640991C17.4784 1.97582 11.7294 5.33564 7.44805 10.216C3.1667 15.0963 0.584019 21.2338 0.0877905 27.7069C-0.408438 34.1801 1.20856 40.6395 4.696 46.1154C8.18344 51.5913 13.3531 55.7881 19.4288 58.0758C25.5046 60.3634 32.1584 60.6184 38.3914 58.8025C44.6244 56.9866 50.1001 53.1977 53.9964 48.0048C57.8927 42.8118 59.9994 36.4951 60 30.003H49.2354Z" fill="#001D6E"/>
<path d="M34.6988 31.0511C34.3208 31.2968 33.8978 31.4652 33.4544 31.5465C33.0109 31.6278 32.5557 31.6204 32.1152 31.5248C31.6746 31.4292 31.2573 31.2472 30.8874 30.9894C30.5176 30.7316 30.2025 30.4031 29.9603 30.0228C29.7182 29.6425 29.5538 29.218 29.4766 28.7738C29.3995 28.3296 29.4111 27.8745 29.5108 27.4348C29.6106 26.9952 29.7964 26.5796 30.0577 26.2122C30.3189 25.8448 30.6504 25.5327 31.0329 25.2942L34.6886 22.96C33.0717 21.8787 31.132 21.3865 29.1951 21.5659C27.2582 21.7454 25.442 22.5856 24.0512 23.9456C22.6604 25.3056 21.7797 27.1025 21.5569 29.0349C21.3341 30.9673 21.7827 32.9175 22.8275 34.5583C23.8723 36.1991 25.4497 37.4306 27.2949 38.0461C29.1402 38.6617 31.141 38.6238 32.9616 37.9389C34.7822 37.2539 36.3118 35.9636 37.2938 34.2845C38.2757 32.6053 38.6502 30.6395 38.3545 28.7169L34.6988 31.0511Z" fill="#FF0040"/>
<path d="M49.0076 17.8865L51.1696 8.77258L42.3848 14.3473C42.1784 14.4787 42.0002 14.6498 41.8602 14.8505C41.7203 15.0513 41.6216 15.2778 41.5696 15.5169L40.1367 21.9776C40.0296 22.4597 40.1182 22.9646 40.383 23.3814C40.6479 23.7982 41.0674 24.0928 41.5494 24.2004L48.0152 25.6333C48.4971 25.7385 49.0011 25.6494 49.4177 25.3852L58.2025 19.7852L49.0076 17.8865Z" fill="#27C3E6"/>
</svg>
