<svg width="132" height="38" viewBox="0 0 132 38" fill="none" xmlns="http://www.w3.org/2000/svg">
<path d="M117.21 28.5412C118.063 28.2213 118.987 28.1451 119.88 28.3212C120.26 28.3812 120.42 28.4212 120.66 28.2212C120.9 28.0212 120.56 27.1312 119.97 27.0412C119.168 26.9473 118.356 27.0862 117.63 27.4412C117.238 27.5835 116.909 27.8598 116.7 28.2212C116.61 28.4412 116.84 28.6712 117.21 28.5412Z" fill="white"/>
<path d="M131.161 27.6412C130.931 27.2212 130.321 27.2912 130.011 27.4112C129.623 27.5674 129.309 27.8637 129.131 28.2412C128.941 28.6312 128.981 29.2412 128.781 29.5912C128.343 30.2521 127.806 30.8422 127.191 31.3412C126.95 31.5712 126.655 31.7373 126.334 31.8246C126.013 31.9119 125.675 31.9176 125.351 31.8412C125.601 31.1112 125.791 29.6112 124.491 29.1912C122.971 28.7012 121.311 30.0612 120.661 31.1212C120.48 31.4148 120.322 31.7225 120.191 32.0412L120.121 32.1312C119.608 32.8468 118.963 33.4577 118.221 33.9312C117.971 34.0512 117.661 34.1112 117.801 33.7712C118.075 33.1487 118.457 32.5799 118.931 32.0912C119.415 31.6059 119.778 31.0132 119.991 30.3612C120.121 29.7212 119.381 29.0912 118.671 29.0912C117.933 29.1355 117.231 29.42 116.671 29.9012C116.551 29.4812 116.201 29.1012 115.821 29.3112C115.524 29.5502 115.271 29.8376 115.071 30.1612C114.71 30.6428 114.377 31.1436 114.071 31.6612C113.549 32.5818 112.837 33.3798 111.981 34.0012C111.281 34.3312 110.981 33.6812 111.421 32.9412C111.741 32.3912 112.081 31.8512 112.421 31.3312C112.761 30.8112 113.511 30.1612 113.261 29.6912C113.217 29.57 113.139 29.4643 113.036 29.3875C112.933 29.3108 112.809 29.2664 112.681 29.2599C112.552 29.2535 112.425 29.2854 112.314 29.3515C112.204 29.4175 112.116 29.5149 112.061 29.6312C111.261 28.7012 109.601 29.2012 108.901 29.6312C108.069 30.2211 107.385 30.9944 106.901 31.8912C106.501 32.6012 105.901 34.0612 106.901 34.8112C107.901 35.5612 109.471 34.7412 110.201 33.8912C110.261 34.9812 111.081 35.0512 111.721 34.9912C112.077 34.962 112.42 34.8452 112.721 34.6512C112.798 34.7661 112.898 34.8636 113.015 34.9376C113.132 35.0117 113.264 35.0606 113.401 35.0812C113.821 35.0812 113.931 34.6812 114.071 34.3912C114.606 33.2083 115.34 32.1259 116.241 31.1912C116.799 30.6319 117.52 30.2642 118.301 30.1412C118.821 30.2412 117.811 31.4912 117.671 31.6612C117.163 32.2182 116.772 32.871 116.521 33.5812C116.472 33.7619 116.466 33.9515 116.504 34.1347C116.542 34.3179 116.623 34.4896 116.74 34.6357C116.857 34.7819 117.007 34.8984 117.177 34.9758C117.347 35.0532 117.534 35.0893 117.721 35.0812C118.534 35.0271 119.297 34.6704 119.861 34.0812C119.918 34.2937 120.025 34.4896 120.173 34.6529C120.321 34.8162 120.505 34.9424 120.711 35.0212C122.231 35.6812 123.941 34.2412 124.711 33.0212C125.031 33.1501 125.374 33.2095 125.719 33.1958C126.064 33.182 126.402 33.0952 126.711 32.9412C126.884 32.8589 127.048 32.7584 127.201 32.6412C127.799 32.2087 128.349 31.7124 128.841 31.1612C128.921 32.0812 129.201 33.1612 128.491 33.8012C128.307 33.953 128.086 34.0533 127.85 34.092C127.615 34.1306 127.373 34.1062 127.151 34.0212C126.751 33.9012 126.381 33.3812 125.931 33.5812C125.481 33.7812 125.621 34.3412 125.931 34.5812C126.415 34.9178 126.991 35.0992 127.581 35.1012C128.045 35.1159 128.505 35.0093 128.915 34.7918C129.325 34.5743 129.672 34.2536 129.921 33.8612C130.226 32.9698 130.281 32.0119 130.081 31.0912C129.971 30.2012 129.781 28.9712 130.531 28.4312C130.911 28.2712 131.411 28.1112 131.161 27.6412ZM109.451 33.2812C109.211 33.5612 108.651 34.1412 108.201 34.1112C107.751 34.0812 107.651 33.4912 107.751 33.2312C108.161 32.1312 109.531 30.4412 110.611 30.2312C110.751 30.2312 111.271 30.1512 111.391 30.2312C111.511 30.3112 111.391 30.7712 111.271 30.9112C110.706 31.7331 110.099 32.5242 109.451 33.2812ZM124.281 31.0712C123.966 31.9158 123.479 32.6855 122.851 33.3312C122.611 33.6012 120.851 34.7312 121.061 33.6112C121.156 32.8965 121.413 32.2128 121.811 31.6112C122.29 30.9184 122.998 30.4159 123.811 30.1912C123.94 30.1619 124.076 30.1834 124.191 30.2512C124.441 30.4312 124.321 30.9512 124.281 31.0712Z" fill="white"/>
<path d="M106.27 27.0112C106.405 26.9952 106.531 26.9407 106.635 26.8543C106.739 26.7679 106.816 26.6533 106.856 26.5243C106.896 26.3953 106.898 26.2575 106.861 26.1274C106.825 25.9973 106.752 25.8806 106.65 25.7912C106.172 25.4592 105.619 25.2497 105.04 25.1812C103.577 25.015 102.097 25.2902 100.79 25.9712C98.403 27.0537 96.3887 28.8175 95.0005 31.0412C94.6534 31.5986 94.3843 32.2009 94.2005 32.8312C92.1296 33.2258 90.1281 33.9233 88.2605 34.9012C88.9105 33.9012 92.0505 31.2812 94.1105 29.6612C95.3605 28.6612 97.2905 27.6012 96.7605 26.0512C96.2305 24.5012 93.5705 25.2312 92.3705 25.5312C90.7626 25.9618 89.2544 26.7023 87.9305 27.7112C87.2005 28.2712 87.6405 29.7112 88.3705 29.1012C89.2548 28.4341 90.1911 27.8388 91.1705 27.3212C92.1705 26.8012 95.0205 25.9012 95.5305 26.5112C95.7705 26.8112 94.5305 27.5912 93.7805 28.1412C91.4034 29.7599 89.2455 31.6792 87.3605 33.8512C86.789 34.573 86.3024 35.3582 85.9105 36.1912C85.7705 36.5112 85.7905 36.8912 86.1705 37.0212C86.5505 37.1512 86.8405 36.8712 87.1105 36.7412C88.8699 35.9029 90.7047 35.2333 92.5905 34.7412C94.496 34.213 96.4789 34.0202 98.4505 34.1712C98.7805 34.1712 99.1005 34.2812 99.3805 34.0512C99.6605 33.8212 99.2705 32.6712 98.5705 32.5712C97.6337 32.4615 96.6873 32.4615 95.7505 32.5712L95.9105 32.2312C96.8852 30.5555 98.2593 29.147 99.9105 28.1312C100.825 27.4976 101.839 27.021 102.91 26.7212C103.416 26.6118 103.935 26.5747 104.45 26.6112C104.82 26.7512 104.93 27.5112 104.96 27.8512C105.11 29.7112 103.88 31.3012 102.7 32.6112C101.479 34.0703 99.8382 35.1178 98.0005 35.6112L97.5205 35.6812C97.5205 35.6812 95.8405 36.0012 95.1605 36.1512C95.6337 36.5456 96.1971 36.817 96.8005 36.9412C99.3705 37.5012 101.99 35.4912 103.65 33.7412C104.527 32.835 105.244 31.7869 105.77 30.6412C106.082 30.0924 106.269 29.4822 106.319 28.8534C106.369 28.2245 106.281 27.5923 106.06 27.0012C106.13 27.0119 106.2 27.0153 106.27 27.0112Z" fill="white"/>
<path d="M9.61049 14.7812V17.7812H0.000488281V4.01123H9.37049V7.01123H3.86049V9.34123H8.54049V12.2512H3.86049V14.7712L9.61049 14.7812Z" fill="white"/>
<path d="M11.4204 16.5412L12.7004 13.6712C13.8465 14.4914 15.2031 14.9667 16.6104 15.0412C17.8704 15.0412 18.4004 14.5812 18.4004 13.9112C18.4004 11.7312 11.6404 12.9112 11.6404 8.20122C11.6404 5.74122 13.5804 3.73122 17.3904 3.73122C18.9006 3.72797 20.3821 4.14334 21.6704 4.93122L20.4704 7.83122C19.6087 7.16763 18.5577 6.79629 17.4704 6.77122C16.4704 6.77122 15.8304 7.32122 15.8304 8.01122C15.8304 10.1112 22.2104 8.54122 22.2104 13.6212C22.2104 16.0212 20.9204 18.0712 16.8304 18.0712C14.9142 18.1175 13.0286 17.5842 11.4204 16.5412V16.5412Z" fill="white"/>
<path d="M26.6904 7.10123H23.1804V4.01123H34.0804V7.10123H30.6104V17.7912H26.7104L26.6904 7.10123Z" fill="white"/>
<path d="M41.0705 14.1312H39.6605V17.7912H35.7605V4.01123H41.3405C45.1105 4.01123 47.4705 6.01123 47.4705 9.11123C47.5048 10.0227 47.2661 10.9237 46.7851 11.6987C46.3041 12.4737 45.6026 13.0875 44.7705 13.4612L47.7705 17.7912H43.6105L41.0705 14.1312ZM41.0705 7.13123H39.6605V11.1312H41.1105C42.7205 11.1312 43.5305 10.3812 43.5305 9.13123C43.5305 7.88123 42.7205 7.08123 41.1105 7.08123L41.0705 7.13123Z" fill="white"/>
<path d="M64.5105 7.10123H60.9905V4.01123H71.9005V7.10123H68.4105V17.7912H64.5105V7.10123Z" fill="white"/>
<path d="M58.2905 17.7912H62.2905L56.9505 4.01123H53.1105L47.7505 17.7912H51.7505L52.6105 15.1212H57.4105L58.2905 17.7912ZM53.5505 12.2412L55.0005 7.83123L56.4605 12.2412H53.5505Z" fill="white"/>
<path d="M127.17 17.7912H131.22L125.84 4.01123H122L116.61 17.7912H120.61L121.5 15.1212H126.3L127.17 17.7912ZM122.43 12.2412L123.89 7.83123L125.34 12.2412H122.43Z" fill="white"/>
<path d="M83.2104 14.7812V17.7812H73.6104V4.01123H82.9804V7.01123H77.4704V9.34123H82.1604V12.2512H77.4704V14.7712L83.2104 14.7812Z" fill="white"/>
<path d="M111.4 4.01123H115.3V17.7912H111.4V4.01123Z" fill="white"/>
<path d="M103.81 10.9013C103.81 12.2858 103.4 13.6392 102.631 14.7903C101.862 15.9414 100.768 16.8387 99.4893 17.3685C98.2102 17.8983 96.8027 18.0369 95.4449 17.7668C94.087 17.4967 92.8397 16.83 91.8607 15.8511C90.8818 14.8721 90.2151 13.6248 89.945 12.2669C89.6749 10.9091 89.8135 9.5016 90.3433 8.22252C90.8731 6.94344 91.7704 5.85019 92.9215 5.08102C94.0726 4.31185 95.426 3.90131 96.8105 3.90131C97.8459 3.89695 98.8697 4.11879 99.8105 4.55131L101.46 1.02131C99.329 0.0257694 96.9321 -0.251416 94.6297 0.231387C92.3272 0.71419 90.2436 1.93092 88.6916 3.69886C87.1396 5.46679 86.203 7.69052 86.0225 10.0361C85.842 12.3817 86.4274 14.7225 87.6907 16.707C88.9539 18.6916 90.8269 20.2128 93.0284 21.0421C95.2299 21.8715 97.641 21.9642 99.8997 21.3065C102.158 20.6488 104.143 19.276 105.555 17.3944C106.967 15.5127 107.73 13.2238 107.73 10.8713L103.81 10.9013Z" fill="white"/>
<path d="M98.5505 11.2813C98.2738 11.4398 97.9467 11.4855 97.6372 11.4091C97.3276 11.3327 97.0594 11.14 96.8882 10.871C96.717 10.602 96.6561 10.2774 96.7179 9.96459C96.7798 9.6518 96.9598 9.37488 97.2205 9.19133L98.5405 8.35132C98.4152 8.26999 98.285 8.19651 98.1505 8.13132C97.6018 7.87148 96.9884 7.78017 96.3878 7.86892C95.7872 7.95768 95.2264 8.22252 94.7763 8.62996C94.3262 9.0374 94.007 9.56915 93.8591 10.158C93.7112 10.7468 93.7412 11.3663 93.9453 11.938C94.1494 12.5098 94.5185 13.0083 95.0058 13.3703C95.4932 13.7324 96.0769 13.9418 96.6833 13.9721C97.2896 14.0024 97.8914 13.8523 98.4124 13.5407C98.9335 13.229 99.3504 12.7699 99.6105 12.2213C99.8718 11.6669 99.9623 11.0473 99.8705 10.4413L98.5505 11.2813Z" fill="white"/>
<path d="M103.73 6.5412L104.51 3.2312L101.33 5.2312C101.179 5.32633 101.071 5.47721 101.03 5.6512L100.51 7.9912C100.491 8.07853 100.49 8.16878 100.505 8.25678C100.521 8.34478 100.554 8.4288 100.602 8.50404C100.651 8.57927 100.713 8.64424 100.787 8.69523C100.86 8.74622 100.943 8.78223 101.03 8.8012L103.37 9.3212C103.546 9.3575 103.728 9.3253 103.88 9.2312L107.06 7.2312L103.73 6.5412Z" fill="white"/>
<path d="M0.00033211 27.9412C-0.00416737 27.5598 0.0693129 27.1815 0.216265 26.8295C0.363217 26.4775 0.580541 26.1592 0.854904 25.8942C1.12927 25.6292 1.45488 25.423 1.81177 25.2884C2.16866 25.1538 2.5493 25.0934 2.93033 25.1112C3.32165 25.0949 3.71186 25.1633 4.0743 25.3117C4.43674 25.4601 4.76285 25.6851 5.03033 25.9712L4.52033 26.4712C4.32105 26.2587 4.07896 26.0909 3.81006 25.9788C3.54115 25.8668 3.25154 25.8131 2.96033 25.8212C2.60674 25.8211 2.2587 25.9091 1.94761 26.0772C1.63652 26.2453 1.37217 26.4882 1.17839 26.7839C0.984623 27.0797 0.867529 27.419 0.837679 27.7714C0.807829 28.1237 0.866162 28.4779 1.00741 28.8021C1.14866 29.1262 1.36839 29.4101 1.64677 29.6281C1.92515 29.8461 2.25342 29.9914 2.60198 30.0509C2.95054 30.1103 3.30841 30.082 3.64332 29.9686C3.97822 29.8552 4.27963 29.6602 4.52033 29.4012L5.03033 29.9012C4.76182 30.1893 4.43435 30.4162 4.07023 30.5663C3.70611 30.7165 3.3139 30.7863 2.92033 30.7712C2.53976 30.789 2.15958 30.7286 1.80322 30.5939C1.44686 30.4591 1.12187 30.2528 0.84829 29.9877C0.574709 29.7225 0.358332 29.4042 0.212496 29.0522C0.06666 28.7002 -0.00554598 28.3221 0.00033211 27.9412V27.9412Z" fill="white"/>
<path d="M7.88048 27.9412C7.85855 27.3555 8.01216 26.7767 8.3216 26.2789C8.63103 25.7812 9.08216 25.3873 9.61708 25.1478C10.152 24.9083 10.7463 24.8342 11.3236 24.9349C11.901 25.0356 12.4351 25.3066 12.8573 25.713C13.2796 26.1195 13.5707 26.6428 13.6933 27.2159C13.816 27.789 13.7645 28.3857 13.5456 28.9294C13.3267 29.473 12.9503 29.9388 12.4647 30.267C11.9791 30.5952 11.4066 30.7708 10.8205 30.7712C10.439 30.7889 10.0579 30.7286 9.70046 30.594C9.34304 30.4595 9.01679 30.2535 8.74165 29.9887C8.4665 29.7238 8.24823 29.4057 8.10017 29.0536C7.9521 28.7016 7.87735 28.3231 7.88048 27.9412ZM12.9705 27.9412C12.9744 27.5151 12.8517 27.0975 12.6179 26.7413C12.3841 26.3851 12.0497 26.1064 11.6572 25.9406C11.2647 25.7748 10.8318 25.7294 10.4134 25.8101C9.99506 25.8908 9.6101 26.0939 9.30741 26.3938C9.00472 26.6937 8.79796 27.0767 8.71337 27.4943C8.62878 27.9119 8.67017 28.3452 8.83229 28.7393C8.99442 29.1333 9.26996 29.4703 9.62395 29.7074C9.97793 29.9445 10.3944 30.0712 10.8205 30.0712C11.1037 30.0808 11.3859 30.0324 11.6498 29.9291C11.9137 29.8257 12.1537 29.6695 12.355 29.47C12.5563 29.2706 12.7148 29.0321 12.8206 28.7692C12.9265 28.5063 12.9775 28.2245 12.9705 27.9412V27.9412Z" fill="white"/>
<path d="M22.0305 25.1812V30.7112H21.3805L18.0605 26.5412V30.6712H17.2705V25.1812H17.9205L21.2405 29.3012V25.1812H22.0305Z" fill="white"/>
<path d="M25.5005 30.0812L25.7905 29.4612C26.3039 29.8804 26.9477 30.1068 27.6105 30.1012C28.6105 30.1012 28.9805 29.7312 28.9805 29.2512C28.9805 27.8912 25.6305 28.7512 25.6305 26.6912C25.6305 25.8412 26.2905 25.1112 27.7505 25.1112C28.3783 25.1024 28.9956 25.2724 29.5305 25.6012L29.2705 26.2312C28.8133 25.9477 28.2883 25.7922 27.7505 25.7812C26.8105 25.7812 26.4005 26.1812 26.4005 26.6612C26.4005 28.0112 29.7605 27.1712 29.7605 29.2012C29.7605 30.0412 29.0805 30.7712 27.6105 30.7712C26.8482 30.7943 26.1018 30.5502 25.5005 30.0812V30.0812Z" fill="white"/>
<path d="M33.1204 28.3212V25.1812H33.9104V28.2912C33.9104 29.5112 34.4704 30.0712 35.4704 30.0712C36.4704 30.0712 37.0304 29.5112 37.0304 28.2912V25.1812H37.8004V28.3212C37.8004 28.9418 37.5538 29.537 37.115 29.9758C36.6762 30.4147 36.081 30.6612 35.4604 30.6612C34.8398 30.6612 34.2446 30.4147 33.8057 29.9758C33.3669 29.537 33.1204 28.9418 33.1204 28.3212Z" fill="white"/>
<path d="M41.6704 25.1812H42.4604V30.0212H45.4604V30.7112H41.6704V25.1812Z" fill="white"/>
<path d="M49.1605 25.8612H47.2705V25.1812H51.8405V25.8612H49.9505V30.7112H49.1605V25.8612Z" fill="white"/>
<path d="M54.3905 27.9412C54.3688 27.3581 54.5211 26.7817 54.828 26.2855C55.1349 25.7892 55.5825 25.3955 56.1139 25.1545C56.6452 24.9134 57.2363 24.8359 57.8119 24.9319C58.3874 25.0278 58.9214 25.2929 59.3458 25.6932C59.7703 26.0936 60.066 26.6113 60.1953 27.1802C60.3246 27.7492 60.2817 28.3438 60.072 28.8883C59.8624 29.4329 59.4954 29.9027 59.0179 30.238C58.5403 30.5733 57.9738 30.7589 57.3905 30.7712C57.0041 30.7974 56.6165 30.7435 56.2519 30.6128C55.8874 30.482 55.5538 30.2774 55.2721 30.0117C54.9904 29.7459 54.7667 29.4248 54.615 29.0685C54.4633 28.7122 54.3868 28.3284 54.3905 27.9412V27.9412ZM59.4805 27.9412C59.4844 27.5147 59.3615 27.0967 59.1272 26.7403C58.8929 26.3839 58.558 26.1052 58.1649 25.9397C57.7718 25.7742 57.3384 25.7293 56.9197 25.8108C56.5011 25.8923 56.1161 26.0965 55.8138 26.3974C55.5116 26.6983 55.3056 27.0822 55.2221 27.5005C55.1387 27.9188 55.1815 28.3524 55.3452 28.7462C55.5088 29.1401 55.7859 29.4764 56.1412 29.7123C56.4965 29.9482 56.914 30.0732 57.3405 30.0712C57.6229 30.0794 57.904 30.03 58.1667 29.926C58.4294 29.822 58.6682 29.6656 58.8684 29.4663C59.0687 29.267 59.2262 29.029 59.3314 28.7668C59.4367 28.5045 59.4874 28.2236 59.4805 27.9412V27.9412Z" fill="white"/>
<path d="M67.4806 30.7112L66.2906 29.0112H64.6106V30.7012H63.8206V25.1812H65.9806C67.4206 25.1812 68.2906 25.9012 68.2906 27.1012C68.3103 27.4869 68.2011 27.8683 67.9802 28.1851C67.7593 28.502 67.4393 28.7363 67.0706 28.8512L68.3806 30.7112H67.4806ZM67.4806 27.1012C67.4806 26.3112 66.9506 25.8612 65.9406 25.8612H64.6106V28.3512H65.9606C66.9306 28.3512 67.4606 27.8912 67.4606 27.1012H67.4806Z" fill="white"/>
<path d="M75.8403 30.0212V30.7112H71.8403V25.1812H75.7503V25.8612H72.6103V27.5412H75.3903V28.2112H72.6103V30.0012L75.8403 30.0212Z" fill="white"/>
<path d="M78.9504 30.0812L79.2404 29.4612C79.7577 29.8804 80.4047 30.1066 81.0704 30.1012C82.0704 30.1012 82.4304 29.7312 82.4304 29.2512C82.4304 27.8912 79.0804 28.7512 79.0804 26.6912C79.0804 25.8412 79.7504 25.1112 81.2004 25.1112C81.8282 25.1024 82.4456 25.2724 82.9804 25.6012L82.7204 26.2312C82.2647 25.9444 81.7388 25.7887 81.2004 25.7812C80.2604 25.7812 79.8604 26.1812 79.8604 26.6612C79.8604 28.0112 83.2104 27.1712 83.2104 29.2012C83.2104 30.0412 82.5304 30.7712 81.0704 30.7712C80.3049 30.7958 79.5549 30.5517 78.9504 30.0812V30.0812Z" fill="white"/>
</svg>
