<svg width="267" height="63" viewBox="0 0 267 63" fill="none" xmlns="http://www.w3.org/2000/svg">
<path d="M19.57 29.9212V36.0312H0V8.03119H19V14.1812H7.87V18.8912H17.37V24.8012H7.87V29.9112L19.57 29.9212Z" fill="white"/>
<path d="M23.21 33.5212L25.8 27.6912C28.1507 29.3503 30.926 30.3044 33.8 30.4412C36.34 30.4412 37.4299 29.5212 37.4299 28.1612C37.4299 23.7312 23.72 26.2312 23.72 16.5812C23.72 11.5812 27.66 7.52118 35.38 7.52118C38.4435 7.50456 41.4504 8.34636 44.06 9.95118L41.63 15.8212C39.29 14.3112 37.63 13.6712 35.63 13.6712C33.63 13.6712 32.31 14.7812 32.31 16.1812C32.31 20.4612 45.25 17.2612 45.25 27.5712C45.25 32.4412 42.64 36.5712 34.33 36.5712C30.3999 36.7044 26.5221 35.6408 23.21 33.5212Z" fill="white"/>
<path d="M54.18 14.3512H47.05V8.07123H69.17V14.3512H62.09V36.0312H54.18V14.3512Z" fill="white"/>
<path d="M83.34 28.6012H80.49V36.0312H72.58V8.03119H83.8999C91.5299 8.03119 96.32 12.0312 96.32 18.3812C96.3914 20.2304 95.9089 22.0589 94.9343 23.6321C93.9597 25.2053 92.5375 26.4516 90.85 27.2112L96.85 35.9912H88.38L83.34 28.6012ZM83.42 14.3112H80.49V22.4912H83.42C86.69 22.4912 88.33 20.9812 88.33 18.4212C88.33 15.8612 86.69 14.3112 83.42 14.3112Z" fill="white"/>
<path d="M130.88 14.3512H123.75V8.07123H145.87V14.3512H138.78V36.0312H130.88V14.3512Z" fill="white"/>
<path d="M118.25 36.0312H126.47L115.55 8.03119H107.76L96.88 36.0312H104.94L106.73 30.6012H116.46L118.25 36.0312ZM108.65 24.7712L111.6 15.7712L114.54 24.7712H108.65Z" fill="white"/>
<path d="M258 36.0312H266.22L255.29 8.03119H247.51L236.62 36.0312H244.68L246.47 30.6012H256.21L258 36.0312ZM248.39 24.7712L251.34 15.7712L254.29 24.7712H248.39Z" fill="white"/>
<path d="M168.8 29.9212V36.0312H149.28V8.03119H168.28V14.1812H157.1V18.8912H166.61V24.8012H157.1V29.9112L168.8 29.9212Z" fill="white"/>
<path d="M226 8.07123H233.91V36.0712H226V8.07123Z" fill="white"/>
<path d="M210.58 22.0512C210.578 25.106 209.585 28.0778 207.751 30.5205C205.917 32.9633 203.339 34.7452 200.406 35.599C197.473 36.4528 194.342 36.3323 191.484 35.2557C188.625 34.179 186.192 32.2043 184.551 29.6278C182.91 27.0513 182.148 24.012 182.381 20.9661C182.614 17.9201 183.828 15.0318 185.842 12.7345C187.855 10.4373 190.559 8.85496 193.549 8.22509C196.538 7.59522 199.651 7.95176 202.42 9.24119L205.77 2.07119C201.447 0.0523288 196.586 -0.509819 191.916 0.469136C187.246 1.44809 183.02 3.91532 179.872 7.50046C176.723 11.0856 174.823 15.5952 174.455 20.3523C174.088 25.1094 175.274 29.8573 177.834 33.8833C180.395 37.9093 184.192 40.9961 188.656 42.6804C193.12 44.3647 198.01 44.5556 202.592 43.2244C207.174 41.8932 211.2 39.1118 214.067 35.2976C216.933 31.4835 218.485 26.8424 218.49 22.0712L210.58 22.0512Z" fill="white"/>
<path d="M199.9 22.8212C199.623 23.0192 199.308 23.1585 198.975 23.2308C198.641 23.3031 198.297 23.3068 197.962 23.2416C197.628 23.1764 197.31 23.0438 197.028 22.8518C196.747 22.6598 196.507 22.4124 196.324 22.1248C196.141 21.8372 196.019 21.5153 195.965 21.1788C195.91 20.8423 195.925 20.4983 196.008 20.1676C196.091 19.837 196.24 19.5267 196.447 19.2556C196.653 18.9846 196.913 18.7585 197.21 18.5912L199.9 16.8812C199.647 16.7136 199.383 16.5632 199.11 16.4312C197.854 15.8333 196.434 15.6729 195.077 15.9755C193.719 16.2781 192.502 17.0263 191.619 18.1009C190.736 19.1756 190.238 20.5148 190.204 21.9053C190.17 23.2958 190.603 24.6576 191.433 25.7738C192.263 26.8899 193.442 27.6962 194.784 28.0643C196.125 28.4323 197.551 28.3409 198.834 27.8046C200.118 27.2683 201.185 26.3179 201.865 25.1049C202.546 23.8919 202.801 22.486 202.59 21.1112L199.9 22.8212Z" fill="#FF0040"/>
<path d="M210.42 13.1812L212.01 6.46124L205.55 10.5812C205.398 10.6782 205.267 10.804 205.164 10.9516C205.062 11.0991 204.989 11.2655 204.95 11.4412L203.9 16.1812C203.818 16.5311 203.877 16.8991 204.064 17.2059C204.251 17.5126 204.552 17.7336 204.9 17.8212L209.65 18.8212C209.994 18.8896 210.351 18.8253 210.65 18.6413L217.11 14.5312L210.42 13.1812Z" fill="#27C3E6"/>
<path d="M48.73 56.6112C48.7206 55.8326 48.8713 55.0603 49.1729 54.3424C49.4745 53.6244 49.9205 52.9762 50.4832 52.4379C51.0458 51.8996 51.7132 51.4827 52.4438 51.2132C53.1744 50.9437 53.9526 50.8273 54.73 50.8712C55.524 50.841 56.3152 50.9816 57.0501 51.2835C57.7851 51.5854 58.4466 52.0416 58.99 52.6212L57.99 53.6212C57.5877 53.1882 57.0978 52.8457 56.553 52.6165C56.0083 52.3872 55.4209 52.2763 54.83 52.2912C53.687 52.2912 52.5907 52.7453 51.7824 53.5536C50.9741 54.3619 50.52 55.4581 50.52 56.6012C50.52 57.7443 50.9741 58.8406 51.7824 59.6489C52.5907 60.4571 53.687 60.9112 54.83 60.9112C55.4216 60.9242 56.0092 60.8115 56.5539 60.5805C57.0987 60.3495 57.5882 60.0055 57.99 59.5712L58.99 60.5712C58.4445 61.1542 57.7799 61.6131 57.0415 61.9168C56.303 62.2204 55.5079 62.3618 54.71 62.3312C53.9356 62.3737 53.1606 62.2568 52.4331 61.9877C51.7056 61.7187 51.041 61.3033 50.4805 60.7671C49.92 60.231 49.4754 59.5855 49.1743 58.8707C48.8733 58.1558 48.722 57.3868 48.73 56.6112Z" fill="white"/>
<path d="M64.71 56.6112C64.6581 55.4148 64.9654 54.2302 65.5923 53.2099C66.2193 52.1897 67.1372 51.3803 68.228 50.8861C69.3188 50.3918 70.5325 50.2353 71.713 50.4366C72.8934 50.6379 73.9867 51.1878 74.852 52.0157C75.7173 52.8435 76.3151 53.9113 76.5685 55.0817C76.8219 56.2521 76.7192 57.4716 76.2738 58.5832C75.8283 59.6948 75.0604 60.6476 74.0688 61.3191C73.0773 61.9906 71.9075 62.3501 70.71 62.3512C69.9336 62.3907 69.1572 62.2712 68.4286 62.0001C67.7 61.729 67.0344 61.312 66.4727 60.7746C65.9109 60.2372 65.4648 59.5907 65.1617 58.8748C64.8586 58.1589 64.7049 57.3886 64.71 56.6112ZM75.03 56.6112C75.0399 55.746 74.7921 54.8973 74.3182 54.1734C73.8443 53.4494 73.1657 52.8828 72.3688 52.5457C71.5718 52.2086 70.6926 52.1163 69.8431 52.2804C68.9935 52.4446 68.212 52.8579 67.598 53.4676C66.984 54.0773 66.5654 54.8559 66.3953 55.7044C66.2252 56.5528 66.3115 57.4326 66.643 58.2319C66.9746 59.0311 67.5365 59.7136 68.2571 60.1926C68.9778 60.6715 69.8247 60.9251 70.69 60.9212C71.2597 60.9349 71.8263 60.8328 72.3554 60.621C72.8845 60.4093 73.3651 60.0923 73.7681 59.6893C74.1711 59.2863 74.4881 58.8057 74.6998 58.2766C74.9116 57.7475 75.0137 57.1809 75 56.6112H75.03Z" fill="white"/>
<path d="M93.41 51.0012V62.1812H92.1L85.36 53.8112V62.1812H83.76V51.0012H85.07L91.81 59.3712V51.0012H93.41Z" fill="white"/>
<path d="M100.44 60.9412L101.04 59.6912C102.084 60.5425 103.393 61.0023 104.74 60.9912C106.68 60.9912 107.51 60.2412 107.51 59.2612C107.51 56.5212 100.72 58.2612 100.72 54.0812C100.72 52.3512 102.06 50.8712 105.01 50.8712C106.285 50.8448 107.54 51.1925 108.62 51.8712L108.09 53.1512C107.171 52.561 106.102 52.2453 105.01 52.2412C103.1 52.2412 102.29 53.0412 102.29 54.0112C102.29 56.7612 109.08 55.0112 109.08 59.1612C109.08 60.8812 107.71 62.3512 104.74 62.3512C103.186 62.395 101.666 61.8964 100.44 60.9412Z" fill="white"/>
<path d="M115.9 57.3812V51.0012H117.51V57.3212C117.51 59.8012 118.64 60.9212 120.66 60.9212C122.68 60.9212 123.84 59.8012 123.84 57.3212V51.0012H125.39V57.3812C125.39 60.6412 123.61 62.3812 120.65 62.3812C117.69 62.3812 115.9 60.6412 115.9 57.3812Z" fill="white"/>
<path d="M133.24 51.0012H134.84V60.8312H140.92V62.1812H133.24V51.0012Z" fill="white"/>
<path d="M148.44 52.4012H144.6V51.0012H153.88V52.4012H150V62.1812H148.41L148.44 52.4012Z" fill="white"/>
<path d="M159 56.6112C158.948 55.4148 159.255 54.2302 159.882 53.2099C160.509 52.1897 161.427 51.3803 162.518 50.8861C163.609 50.3918 164.823 50.2353 166.003 50.4366C167.183 50.6379 168.277 51.1878 169.142 52.0157C170.007 52.8435 170.605 53.9113 170.859 55.0817C171.112 56.2521 171.009 57.4716 170.564 58.5832C170.118 59.6948 169.35 60.6476 168.359 61.3191C167.367 61.9906 166.198 62.3501 165 62.3512C164.224 62.3907 163.447 62.2712 162.719 62.0001C161.99 61.729 161.324 61.312 160.763 60.7746C160.201 60.2372 159.755 59.5907 159.452 58.8748C159.149 58.1589 158.995 57.3886 159 56.6112ZM169.33 56.6112C169.342 55.7436 169.095 54.8921 168.622 54.1651C168.148 53.4382 167.468 52.8688 166.67 52.5294C165.871 52.19 164.99 52.096 164.137 52.2594C163.285 52.4228 162.501 52.8362 161.885 53.4469C161.268 54.0577 160.848 54.838 160.676 55.6887C160.505 56.5393 160.591 57.4216 160.923 58.2233C161.255 59.025 161.818 59.7096 162.541 60.1901C163.263 60.6706 164.112 60.9251 164.98 60.9212C165.556 60.9446 166.131 60.8497 166.669 60.6424C167.206 60.4351 167.696 60.1198 168.107 59.716C168.519 59.3121 168.843 58.8283 169.06 58.2943C169.277 57.7603 169.383 57.1875 169.37 56.6112H169.33Z" fill="white"/>
<path d="M185.59 62.1812L183.17 58.7412C182.95 58.7412 182.71 58.7412 182.47 58.7412H179.69V62.1812H178.09V51.0012H182.47C185.38 51.0012 187.15 52.4812 187.15 54.9112C187.185 55.692 186.962 56.4627 186.516 57.1043C186.069 57.7458 185.424 58.2227 184.68 58.4612L187.34 62.2212L185.59 62.1812ZM185.59 54.8712C185.59 53.2712 184.51 52.3612 182.46 52.3612H179.73V57.4112H182.46C184.47 57.4512 185.55 56.5212 185.55 54.9112L185.59 54.8712Z" fill="white"/>
<path d="M202.54 60.8312V62.1812H194.4V51.0012H202.32V52.4012H196V55.8412H201.63V57.1812H196V60.8012L202.54 60.8312Z" fill="white"/>
<path d="M208.85 60.9412L209.44 59.6912C210.484 60.5425 211.793 61.0023 213.14 60.9912C215.08 60.9912 215.92 60.2412 215.92 59.2612C215.92 56.5212 209.12 58.2612 209.12 54.0812C209.12 52.3512 210.47 50.8712 213.42 50.8712C214.692 50.8462 215.943 51.1938 217.02 51.8712L216.49 53.1512C215.574 52.5613 214.509 52.2455 213.42 52.2412C211.51 52.2412 210.69 53.0412 210.69 54.0112C210.69 56.7612 217.49 55.0112 217.49 59.1612C217.49 60.8812 216.11 62.3512 213.14 62.3512C211.59 62.3934 210.073 61.8949 208.85 60.9412Z" fill="white"/>
</svg>
