<svg width="516" height="240" viewBox="0 0 516 240" fill="none" xmlns="http://www.w3.org/2000/svg">
<path fill-rule="evenodd" clip-rule="evenodd" d="M224.3 91.7C216.5 83.9 206.3 80 196 80C185.8 80 175.5 83.9 167.7 91.7C152.1 107.3 152.1 132.6 167.7 148.3C183.3 163.9 208.6 163.9 224.3 148.3C239.9 132.7 239.9 107.3 224.3 91.7ZM213 137C203.6 146.4 188.4 146.4 179.1 137C169.7 127.6 169.7 112.4 179.1 103.1C188.5 93.7 203.7 93.7 213 103.1C222.3 112.4 222.3 127.6 213 137Z" fill="#2D8CFF"/>
<path fill-rule="evenodd" clip-rule="evenodd" d="M308.3 91.7C300.5 83.9 290.3 80 280 80C269.8 80 259.5 83.9 251.7 91.7C236.1 107.3 236.1 132.6 251.7 148.3C267.3 163.9 292.6 163.9 308.3 148.3C323.9 132.7 323.9 107.3 308.3 91.7ZM297 137C287.6 146.4 272.4 146.4 263.1 137C253.7 127.6 253.7 112.4 263.1 103.1C272.5 93.7 287.7 93.7 297 103.1C306.3 112.4 306.3 127.6 297 137ZM96 159.8L100 160H160L159.8 156C159.3 149.4 154.6 144.6 148 144.2L144 144H108L156 96L155.8 92C155.5 85.4 150.6 80.5 144 80.2L140 80H80L80.2 84C80.7 90.5 85.5 95.4 92 95.8L96 96H132L84 144L84.2 148C84.6 154.6 89.4 159.4 96 159.8ZM369.8 104C371.2 106.4 371.6 109 371.8 112L372 116V144L372.2 148C372.6 154.5 377.4 159.4 384 159.8L388 160V116L388.2 112C388.4 109 388.8 106.3 390.2 103.9C393 99.1 398.1 96 404 96C409.9 96 415.1 99.2 417.9 104C419.3 106.4 419.7 109.1 419.8 112L420 116V144L420.2 148C420.6 154.6 425.4 159.4 432 159.8L436 160V116V112C436 94.3 421.7 80 404 80C394.4 80 385.9 84.2 380 90.8C374.1 84.2 365.6 80 356 80C349.4 80 343.2 82 338.1 85.5C335 82 328 80 324 80V160L328 159.8C334.7 159.4 339.5 154.6 339.8 148L340 144V116L340.2 112C340.4 109 340.8 106.3 342.2 104C345 99.2 350.1 96 356 96C361.9 96 367.1 99.2 369.8 104Z" fill="#2D8CFF"/>
</svg>
