<svg width="100" height="100" viewBox="0 0 100 100" fill="none" xmlns="http://www.w3.org/2000/svg">
<path d="M50 2.5C23.766 2.5 2.5 23.823 2.5 50.126C5.002 113.301 95.007 113.283 97.5 50.126C97.5 23.823 76.233 2.5 50 2.5Z" fill="#2D8CFF"/>
<path d="M78.285 63.557C78.234 66.063 76.226 66.909 74.28 65.522C70.651 62.982 67.047 60.407 63.429 57.853C63.438 59.035 63.422 61.819 63.428 63.03C63.427 65.276 62.311 66.369 60.018 66.37L40.482 66.372C37.172 66.373 33.863 66.374 30.553 66.37C24.296 66.363 20.091 62.264 20.089 56.169V36.964C20.089 34.686 21.17 33.624 23.489 33.624C31.44 33.775 45.332 33.641 53.127 33.627C58.652 33.633 62.649 37.069 63.317 42.147C66.973 39.567 70.614 36.966 74.28 34.399C75.971 33.172 78.197 33.566 78.285 36.365C78.309 45.151 78.338 54.754 78.285 63.557Z" fill="#F1F1F1"/>
</svg>
